%TF.GenerationSoftware,KiCad,Pcbnew,9.0.2*%
%TF.CreationDate,2025-07-06T19:38:22+10:00*%
%TF.ProjectId,RiscPcPcbRepair,52697363-5063-4506-9362-526570616972,rev?*%
%TF.SameCoordinates,Original*%
%TF.FileFunction,Legend,Top*%
%TF.FilePolarity,Positive*%
%FSLAX46Y46*%
G04 Gerber Fmt 4.6, Leading zero omitted, Abs format (unit mm)*
G04 Created by KiCad (PCBNEW 9.0.2) date 2025-07-06 19:38:22*
%MOMM*%
%LPD*%
G01*
G04 APERTURE LIST*
%ADD10C,0.120000*%
G04 APERTURE END LIST*
D10*
%TO.C,V5*%
X106048956Y-127891203D02*
X107792008Y-127891203D01*
X106048956Y-129628808D02*
X106048956Y-127891203D01*
X107792008Y-127912991D02*
X107792008Y-129634255D01*
X107792008Y-129634255D02*
X106048956Y-129628808D01*
%TO.C,D4*%
X135959851Y-130681050D02*
X137702903Y-130681050D01*
X135959851Y-132418655D02*
X135959851Y-130681050D01*
X137702903Y-130702838D02*
X137702903Y-132424102D01*
X137702903Y-132424102D02*
X135959851Y-132418655D01*
%TO.C,V0*%
X106000910Y-120444018D02*
X107743962Y-120444018D01*
X106000910Y-122181623D02*
X106000910Y-120444018D01*
X107743962Y-120465806D02*
X107743962Y-122187070D01*
X107743962Y-122187070D02*
X106000910Y-122181623D01*
%TO.C,V6*%
X106161182Y-125579125D02*
X107904234Y-125579125D01*
X106161182Y-127316730D02*
X106161182Y-125579125D01*
X107904234Y-125600913D02*
X107904234Y-127322177D01*
X107904234Y-127322177D02*
X106161182Y-127316730D01*
%TO.C,V7*%
X106161182Y-122936576D02*
X107904234Y-122936576D01*
X106161182Y-124674181D02*
X106161182Y-122936576D01*
X107904234Y-122958364D02*
X107904234Y-124679628D01*
X107904234Y-124679628D02*
X106161182Y-124674181D01*
%TO.C,C2*%
X121761252Y-132235000D02*
X121238748Y-132235000D01*
X121761252Y-130765000D02*
X121238748Y-130765000D01*
%TO.C,C1*%
X138735000Y-122238748D02*
X138735000Y-122761252D01*
X137265000Y-122238748D02*
X137265000Y-122761252D01*
%TO.C,RP16*%
X110167270Y-120546620D02*
X110167270Y-120826620D01*
X110167270Y-131066620D02*
X110167270Y-130786620D01*
X112552270Y-120546620D02*
X110167270Y-120546620D01*
X112552270Y-120546620D02*
X114937270Y-120546620D01*
X112552270Y-131066620D02*
X110167270Y-131066620D01*
X112552270Y-131066620D02*
X114937270Y-131066620D01*
X114937270Y-120546620D02*
X114937270Y-120826620D01*
X114937270Y-131066620D02*
X114937270Y-130786620D01*
X109389770Y-120826620D02*
X109149770Y-120496620D01*
X109629770Y-120496620D01*
X109389770Y-120826620D01*
G36*
X109389770Y-120826620D02*
G01*
X109149770Y-120496620D01*
X109629770Y-120496620D01*
X109389770Y-120826620D01*
G37*
%TO.C,IC33*%
X124436622Y-119633649D02*
X124096622Y-119163649D01*
X124776622Y-119163649D01*
X124436622Y-119633649D01*
G36*
X124436622Y-119633649D02*
G01*
X124096622Y-119163649D01*
X124776622Y-119163649D01*
X124436622Y-119633649D01*
G37*
X133009122Y-132418649D02*
X133009122Y-132183649D01*
X133009122Y-119398649D02*
X133009122Y-119633649D01*
X129149122Y-132418649D02*
X133009122Y-132418649D01*
X129149122Y-132418649D02*
X125289122Y-132418649D01*
X129149122Y-119398649D02*
X133009122Y-119398649D01*
X129149122Y-119398649D02*
X125289122Y-119398649D01*
X125289122Y-132418649D02*
X125289122Y-132183649D01*
X125289122Y-119398649D02*
X125289122Y-119633649D01*
%TO.C,GND3*%
X119414348Y-119628593D02*
X121157400Y-119628593D01*
X119414348Y-121366198D02*
X119414348Y-119628593D01*
X121157400Y-119650381D02*
X121157400Y-121371645D01*
X121157400Y-121371645D02*
X119414348Y-121366198D01*
%TO.C,GND4*%
X111133921Y-131831093D02*
X112876973Y-131831093D01*
X111133921Y-133568698D02*
X111133921Y-131831093D01*
X112876973Y-131852881D02*
X112876973Y-133574145D01*
X112876973Y-133574145D02*
X111133921Y-133568698D01*
%TD*%
M02*
