M48
; DRILL file {KiCad 9.0.2} date 2025-07-06T19:34:44+1000
; FORMAT={-:-/ absolute / metric / decimal}
; #@! TF.CreationDate,2025-07-06T19:34:44+10:00
; #@! TF.GenerationSoftware,Kicad,Pcbnew,9.0.2
; #@! TF.FileFunction,Plated,1,2,PTH
FMAT,2
METRIC
; #@! TA.AperFunction,Plated,PTH,ViaDrill
T1C0.300
; #@! TA.AperFunction,Plated,PTH,ComponentDrill
T2C0.500
%
G90
G05
T1
X114.0Y-121.362
X114.0Y-122.632
X114.0Y-125.172
X114.0Y-128.0
X129.585Y-125.274
X130.186Y-127.814
X130.5Y-130.354
X130.715Y-122.734
T2
X106.867Y-121.321
X106.915Y-128.768
X107.027Y-123.814
X107.027Y-126.456
X111.349Y-130.176
X111.351Y-122.612
X111.358Y-124.963
X112.0Y-132.708
X112.68Y-127.117
X119.019Y-132.374
X120.28Y-120.506
X125.893Y-121.321
X125.899Y-126.442
X125.961Y-131.529
X125.982Y-128.944
X126.0Y-124.0
X132.228Y-129.109
X132.322Y-126.47
X132.345Y-124.02
X132.393Y-121.239
X136.5Y-120.0
X136.826Y-131.558
X138.0Y-124.5
M30
