%TF.GenerationSoftware,KiCad,Pcbnew,9.0.2*%
%TF.CreationDate,2025-07-06T19:38:22+10:00*%
%TF.ProjectId,RiscPcPcbRepair,52697363-5063-4506-9362-526570616972,rev?*%
%TF.SameCoordinates,Original*%
%TF.FileFunction,Soldermask,Top*%
%TF.FilePolarity,Negative*%
%FSLAX46Y46*%
G04 Gerber Fmt 4.6, Leading zero omitted, Abs format (unit mm)*
G04 Created by KiCad (PCBNEW 9.0.2) date 2025-07-06 19:38:22*
%MOMM*%
%LPD*%
G01*
G04 APERTURE LIST*
G04 Aperture macros list*
%AMRoundRect*
0 Rectangle with rounded corners*
0 $1 Rounding radius*
0 $2 $3 $4 $5 $6 $7 $8 $9 X,Y pos of 4 corners*
0 Add a 4 corners polygon primitive as box body*
4,1,4,$2,$3,$4,$5,$6,$7,$8,$9,$2,$3,0*
0 Add four circle primitives for the rounded corners*
1,1,$1+$1,$2,$3*
1,1,$1+$1,$4,$5*
1,1,$1+$1,$6,$7*
1,1,$1+$1,$8,$9*
0 Add four rect primitives between the rounded corners*
20,1,$1+$1,$2,$3,$4,$5,0*
20,1,$1+$1,$4,$5,$6,$7,0*
20,1,$1+$1,$6,$7,$8,$9,0*
20,1,$1+$1,$8,$9,$2,$3,0*%
G04 Aperture macros list end*
%ADD10R,1.000000X1.000000*%
%ADD11RoundRect,0.250000X0.250000X0.475000X-0.250000X0.475000X-0.250000X-0.475000X0.250000X-0.475000X0*%
%ADD12RoundRect,0.250000X-0.475000X0.250000X-0.475000X-0.250000X0.475000X-0.250000X0.475000X0.250000X0*%
%ADD13RoundRect,0.137500X-0.662500X-0.137500X0.662500X-0.137500X0.662500X0.137500X-0.662500X0.137500X0*%
%ADD14RoundRect,0.150000X-0.875000X-0.150000X0.875000X-0.150000X0.875000X0.150000X-0.875000X0.150000X0*%
G04 APERTURE END LIST*
D10*
%TO.C,+5V2*%
X119018996Y-132374182D03*
%TD*%
%TO.C,GND2*%
X138000000Y-124500000D03*
%TD*%
%TO.C,+5V1*%
X136500000Y-120000000D03*
%TD*%
%TO.C,V5*%
X106915035Y-128768176D03*
%TD*%
%TO.C,D4*%
X136825930Y-131558023D03*
%TD*%
%TO.C,V0*%
X106866989Y-121320991D03*
%TD*%
%TO.C,V6*%
X107027261Y-126456098D03*
%TD*%
%TO.C,V7*%
X107027261Y-123813549D03*
%TD*%
D11*
%TO.C,C2*%
X122450000Y-131500000D03*
X120550000Y-131500000D03*
%TD*%
D12*
%TO.C,C1*%
X138000000Y-121550000D03*
X138000000Y-123450000D03*
%TD*%
D10*
%TO.C,V2*%
X111358016Y-124962516D03*
%TD*%
%TO.C,V1*%
X111351433Y-122612390D03*
%TD*%
%TO.C,V3*%
X112679979Y-127117096D03*
%TD*%
%TO.C,V4*%
X111348523Y-130175806D03*
%TD*%
%TO.C,D5*%
X132228249Y-129109471D03*
%TD*%
%TO.C,D6*%
X132321584Y-126469781D03*
%TD*%
%TO.C,D7*%
X132345046Y-124019662D03*
%TD*%
%TO.C,Cdoe\u002A1*%
X132392644Y-121238653D03*
%TD*%
%TO.C,GND1*%
X125961492Y-131528509D03*
%TD*%
%TO.C,D3*%
X125982135Y-128944390D03*
%TD*%
%TO.C,D2*%
X125898722Y-126441976D03*
%TD*%
%TO.C,D1*%
X126000000Y-124000000D03*
%TD*%
%TO.C,D0*%
X125893184Y-121321410D03*
%TD*%
D13*
%TO.C,RP16*%
X109302270Y-121361620D03*
X109302270Y-122631620D03*
X109302270Y-123901620D03*
X109302270Y-125171620D03*
X109302270Y-126441620D03*
X109302270Y-127711620D03*
X109302270Y-128981620D03*
X109302270Y-130251620D03*
X115802270Y-130251620D03*
X115802270Y-128981620D03*
X115802270Y-127711620D03*
X115802270Y-126441620D03*
X115802270Y-125171620D03*
X115802270Y-123901620D03*
X115802270Y-122631620D03*
X115802270Y-121361620D03*
%TD*%
D14*
%TO.C,IC33*%
X133799122Y-120193649D03*
X133799122Y-121463649D03*
X133799122Y-122733649D03*
X133799122Y-124003649D03*
X133799122Y-125273649D03*
X133799122Y-126543649D03*
X133799122Y-127813649D03*
X133799122Y-129083649D03*
X133799122Y-130353649D03*
X133799122Y-131623649D03*
X124499122Y-131623649D03*
X124499122Y-130353649D03*
X124499122Y-129083649D03*
X124499122Y-127813649D03*
X124499122Y-126543649D03*
X124499122Y-125273649D03*
X124499122Y-124003649D03*
X124499122Y-122733649D03*
X124499122Y-121463649D03*
X124499122Y-120193649D03*
%TD*%
D10*
%TO.C,GND3*%
X120280427Y-120505566D03*
%TD*%
%TO.C,GND4*%
X112000000Y-132708066D03*
%TD*%
M02*
