%TF.GenerationSoftware,KiCad,Pcbnew,9.0.8*%
%TF.CreationDate,2026-04-15T02:58:07+10:00*%
%TF.ProjectId,RiscPcRtcRepair,52697363-5063-4527-9463-526570616972,1*%
%TF.SameCoordinates,Original*%
%TF.FileFunction,Copper,L1,Top*%
%TF.FilePolarity,Positive*%
%FSLAX46Y46*%
G04 Gerber Fmt 4.6, Leading zero omitted, Abs format (unit mm)*
G04 Created by KiCad (PCBNEW 9.0.8) date 2026-04-15 02:58:07*
%MOMM*%
%LPD*%
G01*
G04 APERTURE LIST*
G04 Aperture macros list*
%AMRoundRect*
0 Rectangle with rounded corners*
0 $1 Rounding radius*
0 $2 $3 $4 $5 $6 $7 $8 $9 X,Y pos of 4 corners*
0 Add a 4 corners polygon primitive as box body*
4,1,4,$2,$3,$4,$5,$6,$7,$8,$9,$2,$3,0*
0 Add four circle primitives for the rounded corners*
1,1,$1+$1,$2,$3*
1,1,$1+$1,$4,$5*
1,1,$1+$1,$6,$7*
1,1,$1+$1,$8,$9*
0 Add four rect primitives between the rounded corners*
20,1,$1+$1,$2,$3,$4,$5,0*
20,1,$1+$1,$4,$5,$6,$7,0*
20,1,$1+$1,$6,$7,$8,$9,0*
20,1,$1+$1,$8,$9,$2,$3,0*%
G04 Aperture macros list end*
%TA.AperFunction,ComponentPad*%
%ADD10C,1.500000*%
%TD*%
%TA.AperFunction,SMDPad,CuDef*%
%ADD11RoundRect,0.150000X-0.825000X-0.150000X0.825000X-0.150000X0.825000X0.150000X-0.825000X0.150000X0*%
%TD*%
%TA.AperFunction,SMDPad,CuDef*%
%ADD12R,0.600000X1.750000*%
%TD*%
%TA.AperFunction,ComponentPad*%
%ADD13C,1.000000*%
%TD*%
%TA.AperFunction,ComponentPad*%
%ADD14R,1.200000X1.200000*%
%TD*%
%TA.AperFunction,SMDPad,CuDef*%
%ADD15RoundRect,0.249999X-3.750001X1.250001X-3.750001X-1.250001X3.750001X-1.250001X3.750001X1.250001X0*%
%TD*%
%TA.AperFunction,SMDPad,CuDef*%
%ADD16R,2.000000X2.000000*%
%TD*%
%TA.AperFunction,SMDPad,CuDef*%
%ADD17RoundRect,0.112500X0.187500X0.112500X-0.187500X0.112500X-0.187500X-0.112500X0.187500X-0.112500X0*%
%TD*%
%TA.AperFunction,SMDPad,CuDef*%
%ADD18RoundRect,0.250000X-1.075000X-0.550000X1.075000X-0.550000X1.075000X0.550000X-1.075000X0.550000X0*%
%TD*%
%TA.AperFunction,SMDPad,CuDef*%
%ADD19RoundRect,0.140000X-0.170000X0.140000X-0.170000X-0.140000X0.170000X-0.140000X0.170000X0.140000X0*%
%TD*%
%TA.AperFunction,ViaPad*%
%ADD20C,1.000000*%
%TD*%
%TA.AperFunction,ViaPad*%
%ADD21C,2.500000*%
%TD*%
%TA.AperFunction,ViaPad*%
%ADD22C,1.200000*%
%TD*%
%TA.AperFunction,Conductor*%
%ADD23C,0.400000*%
%TD*%
%TA.AperFunction,Conductor*%
%ADD24C,1.000000*%
%TD*%
G04 APERTURE END LIST*
D10*
%TO.P,SDA,1,1*%
%TO.N,Net-(U1-SDA)*%
X109135513Y-79552180D03*
%TD*%
%TO.P,SCL,1,1*%
%TO.N,Net-(U1-SCL)*%
X110339252Y-80831776D03*
%TD*%
D11*
%TO.P,U1,8,VDD*%
%TO.N,Net-(D1-K)*%
X111950000Y-70230000D03*
%TO.P,U1,7,~{INT}*%
%TO.N,Net-(U1-~{INT})*%
X111950000Y-71500000D03*
%TO.P,U1,6,SCL*%
%TO.N,Net-(U1-SCL)*%
X111950000Y-72770000D03*
%TO.P,U1,5,SDA*%
%TO.N,Net-(U1-SDA)*%
X111950000Y-74040000D03*
%TO.P,U1,4,VSS*%
%TO.N,GND*%
X107000000Y-74040000D03*
%TO.P,U1,3,A0*%
X107000000Y-72770000D03*
%TO.P,U1,2,OSCO*%
%TO.N,Net-(U1-OSCO)*%
X107000000Y-71500000D03*
%TO.P,U1,1,OSCI*%
%TO.N,Net-(U1-OSCI)*%
X107000000Y-70230000D03*
%TD*%
D12*
%TO.P,BATT,1,+*%
%TO.N,Net-(BT1-+)*%
X96500000Y-87125000D03*
%TO.P,BATT,2,-*%
%TO.N,GND*%
X97500000Y-88875000D03*
%TD*%
D13*
%TO.P,X1,1,1*%
%TO.N,Net-(U1-OSCI)*%
X104299844Y-69928660D03*
%TO.P,X1,2,2*%
%TO.N,Net-(U1-OSCO)*%
X104299844Y-71828660D03*
D14*
%TO.P,X1,3*%
%TO.N,GND*%
X97299844Y-68978660D03*
D15*
X97299844Y-70878660D03*
D14*
X97299844Y-72778660D03*
%TD*%
D16*
%TO.P,INT,1,1*%
%TO.N,Net-(U1-~{INT})*%
X106000000Y-86000000D03*
%TD*%
D17*
%TO.P,D2,1,K*%
%TO.N,Net-(D1-K)*%
X98000000Y-83000000D03*
%TO.P,D2,2,A*%
%TO.N,Net-(BT1-+)*%
X95900000Y-83000000D03*
%TD*%
%TO.P,D1,1,K*%
%TO.N,Net-(D1-K)*%
X98050000Y-79500000D03*
%TO.P,D1,2,A*%
%TO.N,+5V*%
X95950000Y-79500000D03*
%TD*%
D18*
%TO.P,C3,1*%
%TO.N,Net-(D1-K)*%
X100825000Y-79500000D03*
%TO.P,C3,2*%
%TO.N,GND*%
X104175000Y-79500000D03*
%TD*%
D19*
%TO.P,C2,1*%
%TO.N,Net-(D1-K)*%
X108000000Y-68020000D03*
%TO.P,C2,2*%
%TO.N,Net-(U1-OSCI)*%
X108000000Y-68980000D03*
%TD*%
%TO.P,C1,1*%
%TO.N,Net-(D1-K)*%
X105500000Y-68020000D03*
%TO.P,C1,2*%
%TO.N,Net-(U1-OSCI)*%
X105500000Y-68980000D03*
%TD*%
D20*
%TO.N,GND*%
X104500000Y-75500000D03*
D21*
%TO.N,+5V*%
X92500000Y-79500000D03*
X92500000Y-94500000D03*
D22*
%TO.N,GND*%
X97312306Y-74345796D03*
%TD*%
D23*
%TO.N,Net-(U1-OSCI)*%
X107000000Y-70230000D02*
X107000000Y-69980000D01*
X107000000Y-69980000D02*
X108000000Y-68980000D01*
X104299844Y-69928660D02*
X105500000Y-69928660D01*
X105500000Y-68980000D02*
X105500000Y-69928660D01*
%TO.N,Net-(D1-K)*%
X109500000Y-68020000D02*
X109740000Y-68020000D01*
X109740000Y-68020000D02*
X111950000Y-70230000D01*
X108000000Y-68020000D02*
X109500000Y-68020000D01*
X103500000Y-68000000D02*
X104000000Y-68000000D01*
X104000000Y-68000000D02*
X104020000Y-68020000D01*
X104020000Y-68020000D02*
X108000000Y-68020000D01*
%TO.N,Net-(U1-~{INT})*%
X106000000Y-78000000D02*
X109500000Y-74500000D01*
X106000000Y-86000000D02*
X106000000Y-78000000D01*
X110975001Y-71500000D02*
X111950000Y-71500000D01*
X109500000Y-74500000D02*
X109500000Y-72975001D01*
X109500000Y-72975001D02*
X110975001Y-71500000D01*
%TO.N,Net-(BT1-+)*%
X95900000Y-83000000D02*
X95900000Y-86525000D01*
X95900000Y-86525000D02*
X96500000Y-87125000D01*
D24*
%TO.N,GND*%
X100625000Y-88875000D02*
X102000000Y-87500000D01*
X97500000Y-88875000D02*
X100625000Y-88875000D01*
X102000000Y-87500000D02*
X102000000Y-81675000D01*
X102000000Y-81675000D02*
X104175000Y-79500000D01*
D23*
%TO.N,Net-(D1-K)*%
X98050000Y-79500000D02*
X98050000Y-82950000D01*
X98050000Y-82950000D02*
X98000000Y-83000000D01*
X100825000Y-79500000D02*
X98050000Y-79500000D01*
X103500000Y-68000000D02*
X101699844Y-69800156D01*
X101699844Y-69800156D02*
X101699844Y-78625156D01*
X101699844Y-78625156D02*
X100825000Y-79500000D01*
D24*
%TO.N,GND*%
X104500000Y-75500000D02*
X104500000Y-79175000D01*
X104500000Y-79175000D02*
X104175000Y-79500000D01*
X107000000Y-74040000D02*
X105960000Y-74040000D01*
X105960000Y-74040000D02*
X104500000Y-75500000D01*
X107000000Y-72770000D02*
X107000000Y-74040000D01*
D23*
%TO.N,Net-(U1-SDA)*%
X109135513Y-79552180D02*
X111950000Y-76737693D01*
X111950000Y-76737693D02*
X111950000Y-74040000D01*
%TO.N,Net-(U1-SCL)*%
X111950000Y-72770000D02*
X112924999Y-72770000D01*
X113500000Y-73345001D02*
X113500000Y-77671028D01*
X112924999Y-72770000D02*
X113500000Y-73345001D01*
X113500000Y-77671028D02*
X110339252Y-80831776D01*
%TO.N,Net-(U1-OSCO)*%
X104299844Y-71828660D02*
X106671340Y-71828660D01*
X106671340Y-71828660D02*
X107000000Y-71500000D01*
%TO.N,Net-(U1-OSCI)*%
X105500000Y-69928660D02*
X106698660Y-69928660D01*
X106698660Y-69928660D02*
X107000000Y-70230000D01*
%TD*%
%TA.AperFunction,Conductor*%
%TO.N,+5V*%
G36*
X93189594Y-72788237D02*
G01*
X93230509Y-72813474D01*
X93397046Y-72868659D01*
X93499834Y-72879160D01*
X96075345Y-72879160D01*
X96142384Y-72898845D01*
X96188139Y-72951649D01*
X96199345Y-73003160D01*
X96199345Y-73426536D01*
X96205752Y-73486143D01*
X96256046Y-73620988D01*
X96256048Y-73620991D01*
X96323093Y-73710552D01*
X96347510Y-73776017D01*
X96334311Y-73841157D01*
X96292435Y-73923345D01*
X96238903Y-74088098D01*
X96227756Y-74158481D01*
X96211806Y-74259185D01*
X96211806Y-74432407D01*
X96219983Y-74484035D01*
X96237061Y-74591865D01*
X96238904Y-74603497D01*
X96292433Y-74768241D01*
X96371074Y-74922584D01*
X96472892Y-75062724D01*
X96595378Y-75185210D01*
X96735518Y-75287028D01*
X96889861Y-75365669D01*
X97054605Y-75419198D01*
X97225695Y-75446296D01*
X97225696Y-75446296D01*
X97398916Y-75446296D01*
X97398917Y-75446296D01*
X97570007Y-75419198D01*
X97734751Y-75365669D01*
X97889094Y-75287028D01*
X98029234Y-75185210D01*
X98151720Y-75062724D01*
X98253538Y-74922584D01*
X98332179Y-74768241D01*
X98385708Y-74603497D01*
X98412806Y-74432407D01*
X98412806Y-74259185D01*
X98385708Y-74088095D01*
X98332179Y-73923351D01*
X98332176Y-73923345D01*
X98280206Y-73821346D01*
X98267310Y-73752677D01*
X98291424Y-73690742D01*
X98343640Y-73620991D01*
X98393935Y-73486143D01*
X98400344Y-73426533D01*
X98400344Y-73003160D01*
X98420029Y-72936121D01*
X98472833Y-72890366D01*
X98524344Y-72879160D01*
X100875344Y-72879160D01*
X100942383Y-72898845D01*
X100988138Y-72951649D01*
X100999344Y-73003160D01*
X100999344Y-78075500D01*
X100979659Y-78142539D01*
X100926855Y-78188294D01*
X100875344Y-78199500D01*
X99699998Y-78199500D01*
X99699981Y-78199501D01*
X99597203Y-78210000D01*
X99597200Y-78210001D01*
X99430668Y-78265185D01*
X99430663Y-78265187D01*
X99281342Y-78357289D01*
X99157289Y-78481342D01*
X99065187Y-78630663D01*
X99065185Y-78630668D01*
X99037405Y-78714504D01*
X98997632Y-78771949D01*
X98933116Y-78798772D01*
X98919699Y-78799500D01*
X98428440Y-78799500D01*
X98393845Y-78794576D01*
X98334160Y-78777235D01*
X98334154Y-78777234D01*
X98302372Y-78774733D01*
X98299405Y-78774500D01*
X98299404Y-78774500D01*
X97800606Y-78774500D01*
X97800584Y-78774501D01*
X97765847Y-78777234D01*
X97764126Y-78777734D01*
X97617113Y-78820445D01*
X97617111Y-78820445D01*
X97617111Y-78820446D01*
X97483805Y-78899282D01*
X97483796Y-78899289D01*
X97374289Y-79008796D01*
X97374282Y-79008805D01*
X97295446Y-79142111D01*
X97295445Y-79142113D01*
X97262372Y-79255950D01*
X97252234Y-79290847D01*
X97252234Y-79290849D01*
X97249500Y-79325589D01*
X97249500Y-79674393D01*
X97249501Y-79674415D01*
X97252234Y-79709153D01*
X97252235Y-79709156D01*
X97295445Y-79857887D01*
X97324418Y-79906877D01*
X97332232Y-79920090D01*
X97349500Y-79983211D01*
X97349500Y-82433839D01*
X97329815Y-82500878D01*
X97324647Y-82508188D01*
X97264136Y-82610508D01*
X97245445Y-82642113D01*
X97212372Y-82755950D01*
X97202234Y-82790847D01*
X97202234Y-82790849D01*
X97199500Y-82825589D01*
X97199500Y-83174393D01*
X97199501Y-83174415D01*
X97202234Y-83209152D01*
X97202234Y-83209155D01*
X97202235Y-83209156D01*
X97245445Y-83357887D01*
X97245446Y-83357888D01*
X97324282Y-83491194D01*
X97324289Y-83491203D01*
X97433796Y-83600710D01*
X97433800Y-83600713D01*
X97433802Y-83600715D01*
X97567113Y-83679555D01*
X97715844Y-83722765D01*
X97750595Y-83725500D01*
X98249404Y-83725499D01*
X98284156Y-83722765D01*
X98432887Y-83679555D01*
X98566198Y-83600715D01*
X98675715Y-83491198D01*
X98754555Y-83357887D01*
X98797765Y-83209156D01*
X98800500Y-83174405D01*
X98800499Y-82825596D01*
X98797765Y-82790844D01*
X98755422Y-82645098D01*
X98750500Y-82610508D01*
X98750500Y-80324500D01*
X98753050Y-80315814D01*
X98751762Y-80306853D01*
X98762740Y-80282812D01*
X98770185Y-80257461D01*
X98777025Y-80251533D01*
X98780787Y-80243297D01*
X98803021Y-80229007D01*
X98822989Y-80211706D01*
X98833503Y-80209418D01*
X98839565Y-80205523D01*
X98874500Y-80200500D01*
X98919699Y-80200500D01*
X98986738Y-80220185D01*
X99032493Y-80272989D01*
X99037403Y-80285492D01*
X99065186Y-80369334D01*
X99157288Y-80518656D01*
X99281344Y-80642712D01*
X99430666Y-80734814D01*
X99597203Y-80789999D01*
X99699991Y-80800500D01*
X101160217Y-80800499D01*
X101227256Y-80820184D01*
X101273011Y-80872987D01*
X101282955Y-80942146D01*
X101253930Y-81005702D01*
X101247898Y-81012180D01*
X101222863Y-81037214D01*
X101222860Y-81037218D01*
X101113371Y-81201079D01*
X101113364Y-81201092D01*
X101037950Y-81383160D01*
X101037947Y-81383170D01*
X100999500Y-81576456D01*
X100999500Y-87034217D01*
X100979815Y-87101256D01*
X100963181Y-87121898D01*
X100246899Y-87838181D01*
X100185576Y-87871666D01*
X100159218Y-87874500D01*
X98373467Y-87874500D01*
X98306428Y-87854815D01*
X98260673Y-87802011D01*
X98257285Y-87793834D01*
X98243796Y-87757669D01*
X98243793Y-87757664D01*
X98157547Y-87642455D01*
X98157544Y-87642452D01*
X98042335Y-87556206D01*
X98042328Y-87556202D01*
X97907482Y-87505908D01*
X97907483Y-87505908D01*
X97847883Y-87499501D01*
X97847881Y-87499500D01*
X97847873Y-87499500D01*
X97847865Y-87499500D01*
X97424499Y-87499500D01*
X97357460Y-87479815D01*
X97311705Y-87427011D01*
X97300499Y-87375500D01*
X97300499Y-86202129D01*
X97300498Y-86202123D01*
X97294091Y-86142516D01*
X97243797Y-86007671D01*
X97243793Y-86007664D01*
X97157547Y-85892455D01*
X97157544Y-85892452D01*
X97042335Y-85806206D01*
X97042328Y-85806202D01*
X96907482Y-85755908D01*
X96907483Y-85755908D01*
X96847883Y-85749501D01*
X96847881Y-85749500D01*
X96847873Y-85749500D01*
X96847865Y-85749500D01*
X96724500Y-85749500D01*
X96657461Y-85729815D01*
X96611706Y-85677011D01*
X96600500Y-85625500D01*
X96600500Y-83483211D01*
X96617768Y-83420090D01*
X96621118Y-83414423D01*
X96654555Y-83357887D01*
X96697765Y-83209156D01*
X96700500Y-83174405D01*
X96700499Y-82825596D01*
X96697765Y-82790844D01*
X96654555Y-82642113D01*
X96575715Y-82508802D01*
X96575713Y-82508800D01*
X96575710Y-82508796D01*
X96466203Y-82399289D01*
X96466194Y-82399282D01*
X96385111Y-82351330D01*
X96332887Y-82320445D01*
X96184156Y-82277235D01*
X96184153Y-82277234D01*
X96184151Y-82277234D01*
X96153395Y-82274814D01*
X96149405Y-82274500D01*
X96149404Y-82274500D01*
X95650606Y-82274500D01*
X95650584Y-82274501D01*
X95615847Y-82277234D01*
X95615844Y-82277235D01*
X95467113Y-82320445D01*
X95467111Y-82320445D01*
X95467111Y-82320446D01*
X95333805Y-82399282D01*
X95333796Y-82399289D01*
X95224289Y-82508796D01*
X95224282Y-82508805D01*
X95164136Y-82610508D01*
X95145445Y-82642113D01*
X95112372Y-82755950D01*
X95102234Y-82790847D01*
X95102234Y-82790849D01*
X95099500Y-82825589D01*
X95099500Y-83174393D01*
X95099501Y-83174415D01*
X95102234Y-83209153D01*
X95102235Y-83209155D01*
X95102235Y-83209156D01*
X95145445Y-83357887D01*
X95145446Y-83357888D01*
X95182232Y-83420090D01*
X95199500Y-83483211D01*
X95199500Y-86456006D01*
X95199500Y-86593994D01*
X95199500Y-86593996D01*
X95199499Y-86593996D01*
X95226418Y-86729322D01*
X95226421Y-86729332D01*
X95279222Y-86856807D01*
X95355887Y-86971545D01*
X95355888Y-86971546D01*
X95663181Y-87278838D01*
X95696666Y-87340161D01*
X95699500Y-87366519D01*
X95699500Y-88047870D01*
X95699501Y-88047876D01*
X95705908Y-88107483D01*
X95756202Y-88242328D01*
X95756206Y-88242335D01*
X95842452Y-88357544D01*
X95842455Y-88357547D01*
X95957664Y-88443793D01*
X95957671Y-88443797D01*
X96002618Y-88460561D01*
X96092517Y-88494091D01*
X96152127Y-88500500D01*
X96403298Y-88500499D01*
X96470336Y-88520183D01*
X96516091Y-88572987D01*
X96526035Y-88642146D01*
X96524914Y-88648690D01*
X96499500Y-88776454D01*
X96499500Y-88776459D01*
X96499500Y-88973541D01*
X96499500Y-88973543D01*
X96499499Y-88973543D01*
X96537947Y-89166829D01*
X96537950Y-89166839D01*
X96613366Y-89348911D01*
X96678602Y-89446544D01*
X96699480Y-89513222D01*
X96699500Y-89515435D01*
X96699500Y-89797869D01*
X96699501Y-89797876D01*
X96705908Y-89857483D01*
X96756202Y-89992328D01*
X96756206Y-89992335D01*
X96842452Y-90107544D01*
X96842455Y-90107547D01*
X96957664Y-90193793D01*
X96957671Y-90193797D01*
X97002618Y-90210561D01*
X97092517Y-90244091D01*
X97152127Y-90250500D01*
X97847872Y-90250499D01*
X97907483Y-90244091D01*
X98042331Y-90193796D01*
X98157546Y-90107546D01*
X98243796Y-89992331D01*
X98257285Y-89956166D01*
X98299157Y-89900233D01*
X98364621Y-89875816D01*
X98373467Y-89875500D01*
X100723542Y-89875500D01*
X100754566Y-89869328D01*
X100820188Y-89856275D01*
X100916836Y-89837051D01*
X100970165Y-89814961D01*
X101098914Y-89761632D01*
X101262782Y-89652139D01*
X101402139Y-89512782D01*
X101402139Y-89512780D01*
X101412347Y-89502573D01*
X101412348Y-89502570D01*
X102777140Y-88137781D01*
X102886632Y-87973914D01*
X102962052Y-87791835D01*
X103000500Y-87598540D01*
X103000500Y-87401459D01*
X103000500Y-82140782D01*
X103020185Y-82073743D01*
X103036819Y-82053101D01*
X104253102Y-80836818D01*
X104314425Y-80803333D01*
X104340783Y-80800499D01*
X105175500Y-80800499D01*
X105242539Y-80820184D01*
X105288294Y-80872988D01*
X105299500Y-80924499D01*
X105299500Y-84375500D01*
X105279815Y-84442539D01*
X105227011Y-84488294D01*
X105175501Y-84499500D01*
X104952130Y-84499500D01*
X104952123Y-84499501D01*
X104892516Y-84505908D01*
X104757671Y-84556202D01*
X104757664Y-84556206D01*
X104642455Y-84642452D01*
X104642452Y-84642455D01*
X104556206Y-84757664D01*
X104556202Y-84757671D01*
X104505908Y-84892517D01*
X104499501Y-84952116D01*
X104499501Y-84952123D01*
X104499500Y-84952135D01*
X104499500Y-87047870D01*
X104499501Y-87047876D01*
X104505908Y-87107483D01*
X104556202Y-87242328D01*
X104556206Y-87242335D01*
X104642452Y-87357544D01*
X104642455Y-87357547D01*
X104757664Y-87443793D01*
X104757671Y-87443797D01*
X104892517Y-87494091D01*
X104892516Y-87494091D01*
X104899444Y-87494835D01*
X104952127Y-87500500D01*
X107047872Y-87500499D01*
X107107483Y-87494091D01*
X107242331Y-87443796D01*
X107357546Y-87357546D01*
X107443796Y-87242331D01*
X107494091Y-87107483D01*
X107500500Y-87047873D01*
X107500499Y-84952128D01*
X107494091Y-84892517D01*
X107443796Y-84757669D01*
X107443795Y-84757668D01*
X107443793Y-84757664D01*
X107357547Y-84642455D01*
X107357544Y-84642452D01*
X107242335Y-84556206D01*
X107242328Y-84556202D01*
X107107482Y-84505908D01*
X107107483Y-84505908D01*
X107047883Y-84499501D01*
X107047881Y-84499500D01*
X107047873Y-84499500D01*
X107047865Y-84499500D01*
X106824500Y-84499500D01*
X106757461Y-84479815D01*
X106711706Y-84427011D01*
X106700500Y-84375500D01*
X106700500Y-78341518D01*
X106720185Y-78274479D01*
X106736819Y-78253837D01*
X108321957Y-76668699D01*
X110044113Y-74946543D01*
X110057547Y-74926437D01*
X110061963Y-74919830D01*
X110120771Y-74831817D01*
X110120771Y-74831816D01*
X110120775Y-74831811D01*
X110151707Y-74757134D01*
X110173580Y-74704329D01*
X110192649Y-74608462D01*
X110200500Y-74568993D01*
X110200500Y-73316519D01*
X110220185Y-73249480D01*
X110236813Y-73228843D01*
X110322356Y-73143300D01*
X110343357Y-73131833D01*
X110361899Y-73116708D01*
X110373461Y-73115395D01*
X110383675Y-73109818D01*
X110407544Y-73111524D01*
X110431322Y-73108825D01*
X110441759Y-73113971D01*
X110453367Y-73114802D01*
X110472525Y-73129143D01*
X110493987Y-73139727D01*
X110502308Y-73151438D01*
X110509301Y-73156673D01*
X110516296Y-73167075D01*
X110522272Y-73177011D01*
X110523256Y-73180398D01*
X110606919Y-73321865D01*
X110613118Y-73328064D01*
X110620953Y-73341091D01*
X110626103Y-73360780D01*
X110635857Y-73378642D01*
X110634766Y-73393894D01*
X110638636Y-73408687D01*
X110632324Y-73428033D01*
X110630873Y-73448334D01*
X110620371Y-73464673D01*
X110616967Y-73475111D01*
X110610091Y-73480719D01*
X110611702Y-73481969D01*
X110606917Y-73488137D01*
X110523255Y-73629603D01*
X110523254Y-73629606D01*
X110477402Y-73787426D01*
X110477401Y-73787432D01*
X110474500Y-73824298D01*
X110474500Y-74255701D01*
X110477401Y-74292567D01*
X110477402Y-74292573D01*
X110523254Y-74450393D01*
X110523255Y-74450396D01*
X110606917Y-74591862D01*
X110606923Y-74591870D01*
X110723129Y-74708076D01*
X110723133Y-74708079D01*
X110723135Y-74708081D01*
X110864602Y-74791744D01*
X110906224Y-74803836D01*
X111022426Y-74837597D01*
X111022429Y-74837597D01*
X111022431Y-74837598D01*
X111059306Y-74840500D01*
X111125500Y-74840500D01*
X111192539Y-74860185D01*
X111238294Y-74912989D01*
X111249500Y-74964500D01*
X111249500Y-76396173D01*
X111229815Y-76463212D01*
X111213181Y-76483854D01*
X109417959Y-78279075D01*
X109356636Y-78312560D01*
X109310880Y-78313867D01*
X109233935Y-78301680D01*
X109233930Y-78301680D01*
X109037096Y-78301680D01*
X109037091Y-78301680D01*
X108842686Y-78332470D01*
X108655483Y-78393297D01*
X108480107Y-78482656D01*
X108389254Y-78548665D01*
X108320867Y-78598352D01*
X108320865Y-78598354D01*
X108320864Y-78598354D01*
X108181687Y-78737531D01*
X108181687Y-78737532D01*
X108181685Y-78737534D01*
X108152479Y-78777733D01*
X108065989Y-78896774D01*
X107976630Y-79072150D01*
X107915803Y-79259353D01*
X107885013Y-79453757D01*
X107885013Y-79650602D01*
X107915803Y-79845006D01*
X107976630Y-80032209D01*
X108051471Y-80179092D01*
X108065989Y-80207585D01*
X108181685Y-80366826D01*
X108320867Y-80506008D01*
X108480108Y-80621704D01*
X108521335Y-80642710D01*
X108655483Y-80711062D01*
X108655485Y-80711062D01*
X108655488Y-80711064D01*
X108728583Y-80734814D01*
X108842686Y-80771889D01*
X108923968Y-80784762D01*
X108984149Y-80794294D01*
X109047284Y-80824223D01*
X109084216Y-80883534D01*
X109088752Y-80916767D01*
X109088752Y-80930198D01*
X109119542Y-81124602D01*
X109180369Y-81311805D01*
X109269728Y-81487181D01*
X109385424Y-81646422D01*
X109524606Y-81785604D01*
X109683847Y-81901300D01*
X109766707Y-81943519D01*
X109859222Y-81990658D01*
X109859224Y-81990658D01*
X109859227Y-81990660D01*
X109959569Y-82023263D01*
X110046425Y-82051485D01*
X110240830Y-82082276D01*
X110240835Y-82082276D01*
X110437674Y-82082276D01*
X110632078Y-82051485D01*
X110819277Y-81990660D01*
X110994657Y-81901300D01*
X111153898Y-81785604D01*
X111293080Y-81646422D01*
X111408776Y-81487181D01*
X111498136Y-81311801D01*
X111558961Y-81124602D01*
X111577793Y-81005702D01*
X111589752Y-80930198D01*
X111589752Y-80733361D01*
X111589752Y-80733359D01*
X111577563Y-80656404D01*
X111586517Y-80587115D01*
X111612352Y-80549331D01*
X113787821Y-78373863D01*
X113849142Y-78340380D01*
X113918834Y-78345364D01*
X113974767Y-78387236D01*
X113999184Y-78452700D01*
X113999500Y-78461546D01*
X113999500Y-98125500D01*
X113979815Y-98192539D01*
X113927011Y-98238294D01*
X113875500Y-98249500D01*
X93124500Y-98249500D01*
X93057461Y-98229815D01*
X93011706Y-98177011D01*
X93000500Y-98125500D01*
X93000500Y-79725001D01*
X95157358Y-79725001D01*
X95195906Y-79857681D01*
X95195907Y-79857684D01*
X95274682Y-79990885D01*
X95274688Y-79990894D01*
X95384105Y-80100311D01*
X95384114Y-80100317D01*
X95517315Y-80179092D01*
X95517318Y-80179093D01*
X95665915Y-80222265D01*
X95665927Y-80222267D01*
X95700646Y-80224999D01*
X96175000Y-80224999D01*
X96199342Y-80224999D01*
X96199363Y-80224998D01*
X96234078Y-80222266D01*
X96382681Y-80179093D01*
X96382684Y-80179092D01*
X96515885Y-80100317D01*
X96515894Y-80100311D01*
X96625311Y-79990894D01*
X96625317Y-79990885D01*
X96704092Y-79857684D01*
X96704093Y-79857681D01*
X96742641Y-79725001D01*
X96742640Y-79725000D01*
X96175000Y-79725000D01*
X96175000Y-80224999D01*
X95700646Y-80224999D01*
X95725000Y-80224998D01*
X95725000Y-79725000D01*
X95157360Y-79725000D01*
X95157358Y-79725001D01*
X93000500Y-79725001D01*
X93000500Y-79274998D01*
X95157358Y-79274998D01*
X95157360Y-79275000D01*
X95725000Y-79275000D01*
X96175000Y-79275000D01*
X96742640Y-79275000D01*
X96742641Y-79274998D01*
X96704093Y-79142318D01*
X96704092Y-79142315D01*
X96625317Y-79009114D01*
X96625311Y-79009105D01*
X96515894Y-78899688D01*
X96515885Y-78899682D01*
X96382684Y-78820907D01*
X96382681Y-78820906D01*
X96234084Y-78777734D01*
X96234073Y-78777732D01*
X96199359Y-78775000D01*
X96175000Y-78775000D01*
X96175000Y-79275000D01*
X95725000Y-79275000D01*
X95725000Y-78774999D01*
X95700647Y-78775000D01*
X95665921Y-78777733D01*
X95517318Y-78820906D01*
X95517315Y-78820907D01*
X95384114Y-78899682D01*
X95384105Y-78899688D01*
X95274688Y-79009105D01*
X95274682Y-79009114D01*
X95195907Y-79142315D01*
X95195906Y-79142318D01*
X95157358Y-79274998D01*
X93000500Y-79274998D01*
X93000500Y-72893777D01*
X93020185Y-72826738D01*
X93072989Y-72780983D01*
X93142147Y-72771039D01*
X93189594Y-72788237D01*
G37*
%TD.AperFunction*%
%TD*%
M02*
