%TF.GenerationSoftware,KiCad,Pcbnew,9.0.8*%
%TF.CreationDate,2026-05-05T00:31:32+10:00*%
%TF.ProjectId,RiscPcRtcRepair,52697363-5063-4527-9463-526570616972,1*%
%TF.SameCoordinates,Original*%
%TF.FileFunction,Copper,L2,Bot*%
%TF.FilePolarity,Positive*%
%FSLAX46Y46*%
G04 Gerber Fmt 4.6, Leading zero omitted, Abs format (unit mm)*
G04 Created by KiCad (PCBNEW 9.0.8) date 2026-05-05 00:31:32*
%MOMM*%
%LPD*%
G01*
G04 APERTURE LIST*
G04 Aperture macros list*
%AMRoundRect*
0 Rectangle with rounded corners*
0 $1 Rounding radius*
0 $2 $3 $4 $5 $6 $7 $8 $9 X,Y pos of 4 corners*
0 Add a 4 corners polygon primitive as box body*
4,1,4,$2,$3,$4,$5,$6,$7,$8,$9,$2,$3,0*
0 Add four circle primitives for the rounded corners*
1,1,$1+$1,$2,$3*
1,1,$1+$1,$4,$5*
1,1,$1+$1,$6,$7*
1,1,$1+$1,$8,$9*
0 Add four rect primitives between the rounded corners*
20,1,$1+$1,$2,$3,$4,$5,0*
20,1,$1+$1,$4,$5,$6,$7,0*
20,1,$1+$1,$6,$7,$8,$9,0*
20,1,$1+$1,$8,$9,$2,$3,0*%
G04 Aperture macros list end*
%TA.AperFunction,ComponentPad*%
%ADD10C,1.000000*%
%TD*%
%TA.AperFunction,ComponentPad*%
%ADD11R,1.200000X1.200000*%
%TD*%
%TA.AperFunction,ComponentPad*%
%ADD12C,2.000000*%
%TD*%
%TA.AperFunction,ComponentPad*%
%ADD13RoundRect,0.250000X0.625000X-0.350000X0.625000X0.350000X-0.625000X0.350000X-0.625000X-0.350000X0*%
%TD*%
%TA.AperFunction,ComponentPad*%
%ADD14O,1.750000X1.200000*%
%TD*%
%TA.AperFunction,ComponentPad*%
%ADD15C,1.500000*%
%TD*%
%TA.AperFunction,ViaPad*%
%ADD16C,0.600000*%
%TD*%
%TA.AperFunction,Conductor*%
%ADD17C,0.400000*%
%TD*%
G04 APERTURE END LIST*
D10*
%TO.P,Y1,1,1*%
%TO.N,Net-(U1-OSCI)*%
X104750000Y-69800000D03*
%TO.P,Y1,2,2*%
%TO.N,Net-(U1-OSCO)*%
X104750000Y-71700000D03*
D11*
%TO.P,Y1,3,3*%
%TO.N,GND*%
X99000000Y-69250000D03*
X99000000Y-72250000D03*
%TD*%
D12*
%TO.P,+5V1,1,1*%
%TO.N,+5V*%
X93000000Y-92500000D03*
%TD*%
D13*
%TO.P,BT,1,+*%
%TO.N,Net-(BT1-+)*%
X99067158Y-94500000D03*
D14*
%TO.P,BT,2,-*%
%TO.N,GND*%
X99067158Y-92500000D03*
%TD*%
D15*
%TO.P,SDA,1,1*%
%TO.N,Net-(U1-SDA)*%
X109221600Y-79514076D03*
%TD*%
%TO.P,SCL,1,1*%
%TO.N,Net-(U1-SCL)*%
X110372127Y-80855908D03*
%TD*%
D12*
%TO.P,GND,1,1*%
%TO.N,GND*%
X93000000Y-70750000D03*
%TD*%
%TO.P,+5V,1,1*%
%TO.N,+5V*%
X93000000Y-81250000D03*
%TD*%
D16*
%TO.N,GND*%
X109050000Y-86050000D03*
X112500000Y-77500000D03*
%TO.N,Net-(U1-~{INT})*%
X101625000Y-87875000D03*
%TO.N,Net-(U1-SCL)*%
X100023166Y-84750000D03*
%TO.N,Net-(U1-SDA)*%
X98750000Y-84250000D03*
%TO.N,GND*%
X100000000Y-75500000D03*
X98753166Y-75503166D03*
%TO.N,Net-(U1-~{INT})*%
X111000000Y-87000000D03*
%TD*%
D17*
%TO.N,Net-(U1-~{INT})*%
X111000000Y-87000000D02*
X109500000Y-88500000D01*
X109500000Y-88500000D02*
X102250000Y-88500000D01*
X102250000Y-88500000D02*
X101625000Y-87875000D01*
%TO.N,Net-(U1-SCL)*%
X110372127Y-80855908D02*
X103917258Y-80855908D01*
X103917258Y-80855908D02*
X100023166Y-84750000D01*
%TO.N,Net-(U1-SDA)*%
X109231931Y-79561632D02*
X103438368Y-79561632D01*
X103438368Y-79561632D02*
X98753166Y-84246834D01*
%TD*%
%TA.AperFunction,Conductor*%
%TO.N,GND*%
G36*
X114942539Y-67270185D02*
G01*
X114988294Y-67322989D01*
X114999500Y-67374500D01*
X114999500Y-98125500D01*
X114979815Y-98192539D01*
X114927011Y-98238294D01*
X114875500Y-98249500D01*
X93624500Y-98249500D01*
X93557461Y-98229815D01*
X93511706Y-98177011D01*
X93500500Y-98125500D01*
X93500500Y-94099983D01*
X97691658Y-94099983D01*
X97691658Y-94900001D01*
X97691659Y-94900019D01*
X97702158Y-95002796D01*
X97702159Y-95002799D01*
X97757343Y-95169331D01*
X97757344Y-95169334D01*
X97849446Y-95318656D01*
X97973502Y-95442712D01*
X98122824Y-95534814D01*
X98289361Y-95589999D01*
X98392149Y-95600500D01*
X99742166Y-95600499D01*
X99844955Y-95589999D01*
X100011492Y-95534814D01*
X100160814Y-95442712D01*
X100284870Y-95318656D01*
X100376972Y-95169334D01*
X100432157Y-95002797D01*
X100442658Y-94900009D01*
X100442657Y-94099992D01*
X100432157Y-93997203D01*
X100376972Y-93830666D01*
X100284870Y-93681344D01*
X100160814Y-93557288D01*
X100011492Y-93465186D01*
X99844955Y-93410001D01*
X99844953Y-93410000D01*
X99742168Y-93399500D01*
X98392156Y-93399500D01*
X98392139Y-93399501D01*
X98289361Y-93410000D01*
X98289358Y-93410001D01*
X98122826Y-93465185D01*
X98122821Y-93465187D01*
X97973500Y-93557289D01*
X97849447Y-93681342D01*
X97757345Y-93830663D01*
X97757344Y-93830666D01*
X97702159Y-93997203D01*
X97702159Y-93997204D01*
X97702158Y-93997204D01*
X97691658Y-94099983D01*
X93500500Y-94099983D01*
X93500500Y-94004692D01*
X93520185Y-93937653D01*
X93571749Y-93892972D01*
X93571651Y-93892780D01*
X93572428Y-93892384D01*
X93572989Y-93891898D01*
X93575693Y-93890720D01*
X93575990Y-93890568D01*
X93575992Y-93890568D01*
X93786433Y-93783343D01*
X93977510Y-93644517D01*
X94144517Y-93477510D01*
X94283343Y-93286433D01*
X94390568Y-93075992D01*
X94463553Y-92851368D01*
X94500500Y-92618097D01*
X94500500Y-92381902D01*
X94463553Y-92148631D01*
X94390566Y-91924003D01*
X94283342Y-91713566D01*
X94144517Y-91522490D01*
X93977510Y-91355483D01*
X93786433Y-91216657D01*
X93575992Y-91109432D01*
X93571651Y-91107220D01*
X93572263Y-91106018D01*
X93522633Y-91066011D01*
X93500578Y-90999714D01*
X93500500Y-90995307D01*
X93500500Y-87796153D01*
X100824500Y-87796153D01*
X100824500Y-87953846D01*
X100855261Y-88108489D01*
X100855264Y-88108501D01*
X100915602Y-88254172D01*
X100915609Y-88254185D01*
X101003210Y-88385288D01*
X101003213Y-88385292D01*
X101114707Y-88496786D01*
X101114711Y-88496789D01*
X101245814Y-88584390D01*
X101245827Y-88584397D01*
X101390185Y-88644191D01*
X101430414Y-88671071D01*
X101705886Y-88946542D01*
X101803455Y-89044111D01*
X101803459Y-89044115D01*
X101918182Y-89120771D01*
X101918186Y-89120773D01*
X101918189Y-89120775D01*
X101992866Y-89151707D01*
X102045671Y-89173580D01*
X102072591Y-89178934D01*
X102169630Y-89198237D01*
X102181006Y-89200500D01*
X102181007Y-89200500D01*
X109568996Y-89200500D01*
X109677412Y-89178934D01*
X109704328Y-89173580D01*
X109768069Y-89147177D01*
X109831807Y-89120777D01*
X109831808Y-89120776D01*
X109831811Y-89120775D01*
X109946543Y-89044114D01*
X111194587Y-87796068D01*
X111234808Y-87769193D01*
X111379179Y-87709394D01*
X111510289Y-87621789D01*
X111621789Y-87510289D01*
X111709394Y-87379179D01*
X111715389Y-87364707D01*
X111761571Y-87253211D01*
X111769737Y-87233497D01*
X111800500Y-87078842D01*
X111800500Y-86921158D01*
X111800500Y-86921155D01*
X111800499Y-86921153D01*
X111769737Y-86766503D01*
X111769191Y-86765185D01*
X111709397Y-86620827D01*
X111709390Y-86620814D01*
X111621789Y-86489711D01*
X111621786Y-86489707D01*
X111510292Y-86378213D01*
X111510288Y-86378210D01*
X111379185Y-86290609D01*
X111379172Y-86290602D01*
X111233501Y-86230264D01*
X111233489Y-86230261D01*
X111078845Y-86199500D01*
X111078842Y-86199500D01*
X110921158Y-86199500D01*
X110921155Y-86199500D01*
X110766510Y-86230261D01*
X110766498Y-86230264D01*
X110620827Y-86290602D01*
X110620814Y-86290609D01*
X110489711Y-86378210D01*
X110489707Y-86378213D01*
X110378213Y-86489707D01*
X110378210Y-86489711D01*
X110290609Y-86620814D01*
X110290604Y-86620824D01*
X110230808Y-86765185D01*
X110203928Y-86805413D01*
X109246162Y-87763181D01*
X109184839Y-87796666D01*
X109158481Y-87799500D01*
X102591519Y-87799500D01*
X102562078Y-87790855D01*
X102532092Y-87784332D01*
X102527076Y-87780577D01*
X102524480Y-87779815D01*
X102503838Y-87763181D01*
X102421070Y-87680413D01*
X102394193Y-87640190D01*
X102334394Y-87495821D01*
X102334392Y-87495818D01*
X102334390Y-87495814D01*
X102246789Y-87364711D01*
X102246786Y-87364707D01*
X102135292Y-87253213D01*
X102135288Y-87253210D01*
X102004185Y-87165609D01*
X102004172Y-87165602D01*
X101858501Y-87105264D01*
X101858489Y-87105261D01*
X101703845Y-87074500D01*
X101703842Y-87074500D01*
X101546158Y-87074500D01*
X101546155Y-87074500D01*
X101391510Y-87105261D01*
X101391498Y-87105264D01*
X101245827Y-87165602D01*
X101245814Y-87165609D01*
X101114711Y-87253210D01*
X101114707Y-87253213D01*
X101003213Y-87364707D01*
X101003210Y-87364711D01*
X100915609Y-87495814D01*
X100915602Y-87495827D01*
X100855264Y-87641498D01*
X100855261Y-87641510D01*
X100824500Y-87796153D01*
X93500500Y-87796153D01*
X93500500Y-84171153D01*
X97949500Y-84171153D01*
X97949500Y-84328846D01*
X97980261Y-84483489D01*
X97980264Y-84483501D01*
X98040602Y-84629172D01*
X98040609Y-84629185D01*
X98128210Y-84760288D01*
X98128213Y-84760292D01*
X98239707Y-84871786D01*
X98239711Y-84871789D01*
X98370814Y-84959390D01*
X98370827Y-84959397D01*
X98516498Y-85019735D01*
X98516503Y-85019737D01*
X98671153Y-85050499D01*
X98671156Y-85050500D01*
X98671158Y-85050500D01*
X98828844Y-85050500D01*
X98828845Y-85050499D01*
X98983497Y-85019737D01*
X99112152Y-84966446D01*
X99181618Y-84958978D01*
X99244098Y-84990253D01*
X99274163Y-85033555D01*
X99313770Y-85129176D01*
X99313775Y-85129185D01*
X99401376Y-85260288D01*
X99401379Y-85260292D01*
X99512873Y-85371786D01*
X99512877Y-85371789D01*
X99643980Y-85459390D01*
X99643993Y-85459397D01*
X99789664Y-85519735D01*
X99789669Y-85519737D01*
X99944319Y-85550499D01*
X99944322Y-85550500D01*
X99944324Y-85550500D01*
X100102010Y-85550500D01*
X100102011Y-85550499D01*
X100256663Y-85519737D01*
X100402345Y-85459394D01*
X100533455Y-85371789D01*
X100644955Y-85260289D01*
X100732560Y-85129179D01*
X100732561Y-85129176D01*
X100732563Y-85129173D01*
X100772168Y-85033555D01*
X100792358Y-84984810D01*
X100819235Y-84944586D01*
X104171096Y-81592727D01*
X104232419Y-81559242D01*
X104258777Y-81556408D01*
X109272186Y-81556408D01*
X109339225Y-81576093D01*
X109372502Y-81607520D01*
X109418299Y-81670554D01*
X109557481Y-81809736D01*
X109716722Y-81925432D01*
X109799582Y-81967651D01*
X109892097Y-82014790D01*
X109892099Y-82014790D01*
X109892102Y-82014792D01*
X109958706Y-82036433D01*
X110079300Y-82075617D01*
X110273705Y-82106408D01*
X110273710Y-82106408D01*
X110470549Y-82106408D01*
X110664953Y-82075617D01*
X110852152Y-82014792D01*
X111027532Y-81925432D01*
X111186773Y-81809736D01*
X111325955Y-81670554D01*
X111441651Y-81511313D01*
X111531011Y-81335933D01*
X111591836Y-81148734D01*
X111594502Y-81131902D01*
X111622627Y-80954330D01*
X111622627Y-80757485D01*
X111591836Y-80563081D01*
X111531009Y-80375878D01*
X111441650Y-80200502D01*
X111325955Y-80041262D01*
X111186773Y-79902080D01*
X111027532Y-79786384D01*
X110852152Y-79697024D01*
X110664953Y-79636199D01*
X110664951Y-79636198D01*
X110664949Y-79636198D01*
X110576702Y-79622221D01*
X110513567Y-79592292D01*
X110476636Y-79532980D01*
X110472100Y-79499748D01*
X110472100Y-79415653D01*
X110441309Y-79221249D01*
X110380482Y-79034046D01*
X110303366Y-78882698D01*
X110291124Y-78858671D01*
X110175428Y-78699430D01*
X110036246Y-78560248D01*
X109877005Y-78444552D01*
X109701629Y-78355193D01*
X109514426Y-78294366D01*
X109320022Y-78263576D01*
X109320017Y-78263576D01*
X109123183Y-78263576D01*
X109123178Y-78263576D01*
X108928773Y-78294366D01*
X108741570Y-78355193D01*
X108566194Y-78444552D01*
X108475341Y-78510561D01*
X108406954Y-78560248D01*
X108406952Y-78560250D01*
X108406951Y-78560250D01*
X108267774Y-78699427D01*
X108267774Y-78699428D01*
X108267772Y-78699430D01*
X108187425Y-78810018D01*
X108132095Y-78852683D01*
X108087107Y-78861132D01*
X103369371Y-78861132D01*
X103260958Y-78882697D01*
X103260957Y-78882697D01*
X103234039Y-78888052D01*
X103106558Y-78940856D01*
X102991822Y-79017519D01*
X98555412Y-83453929D01*
X98515184Y-83480809D01*
X98370823Y-83540604D01*
X98370814Y-83540609D01*
X98239711Y-83628210D01*
X98239707Y-83628213D01*
X98128213Y-83739707D01*
X98128210Y-83739711D01*
X98040609Y-83870814D01*
X98040602Y-83870827D01*
X97980264Y-84016498D01*
X97980261Y-84016510D01*
X97949500Y-84171153D01*
X93500500Y-84171153D01*
X93500500Y-82754692D01*
X93520185Y-82687653D01*
X93571749Y-82642972D01*
X93571651Y-82642780D01*
X93572428Y-82642384D01*
X93572989Y-82641898D01*
X93575693Y-82640720D01*
X93575990Y-82640568D01*
X93575992Y-82640568D01*
X93786433Y-82533343D01*
X93977510Y-82394517D01*
X94144517Y-82227510D01*
X94283343Y-82036433D01*
X94390568Y-81825992D01*
X94463553Y-81601368D01*
X94470674Y-81556408D01*
X94500500Y-81368097D01*
X94500500Y-81131902D01*
X94463553Y-80898631D01*
X94390566Y-80674003D01*
X94283342Y-80463566D01*
X94144517Y-80272490D01*
X93977510Y-80105483D01*
X93786433Y-79966657D01*
X93571651Y-79857220D01*
X93572263Y-79856018D01*
X93522633Y-79816011D01*
X93500578Y-79749714D01*
X93500500Y-79745307D01*
X93500500Y-71602155D01*
X97900000Y-71602155D01*
X97900000Y-72000000D01*
X98684314Y-72000000D01*
X98679920Y-72004394D01*
X98627259Y-72095606D01*
X98600000Y-72197339D01*
X98600000Y-72302661D01*
X98627259Y-72404394D01*
X98679920Y-72495606D01*
X98684314Y-72500000D01*
X97900000Y-72500000D01*
X97900000Y-72897844D01*
X97906401Y-72957372D01*
X97906403Y-72957379D01*
X97956645Y-73092086D01*
X97956649Y-73092093D01*
X98042809Y-73207187D01*
X98042812Y-73207190D01*
X98157906Y-73293350D01*
X98157913Y-73293354D01*
X98292620Y-73343596D01*
X98292627Y-73343598D01*
X98352155Y-73349999D01*
X98352172Y-73350000D01*
X98750000Y-73350000D01*
X98750000Y-72565686D01*
X98754394Y-72570080D01*
X98845606Y-72622741D01*
X98947339Y-72650000D01*
X99052661Y-72650000D01*
X99154394Y-72622741D01*
X99245606Y-72570080D01*
X99250000Y-72565686D01*
X99250000Y-73350000D01*
X99647828Y-73350000D01*
X99647844Y-73349999D01*
X99707372Y-73343598D01*
X99707379Y-73343596D01*
X99842086Y-73293354D01*
X99842093Y-73293350D01*
X99957187Y-73207190D01*
X99957190Y-73207187D01*
X100043350Y-73092093D01*
X100043354Y-73092086D01*
X100093596Y-72957379D01*
X100093598Y-72957372D01*
X100099999Y-72897844D01*
X100100000Y-72897827D01*
X100100000Y-72500000D01*
X99315686Y-72500000D01*
X99320080Y-72495606D01*
X99372741Y-72404394D01*
X99400000Y-72302661D01*
X99400000Y-72197339D01*
X99372741Y-72095606D01*
X99320080Y-72004394D01*
X99315686Y-72000000D01*
X100100000Y-72000000D01*
X100100000Y-71602172D01*
X100099999Y-71602155D01*
X100093598Y-71542627D01*
X100093596Y-71542620D01*
X100043354Y-71407913D01*
X100043350Y-71407906D01*
X99957190Y-71292812D01*
X99957187Y-71292809D01*
X99842093Y-71206649D01*
X99842086Y-71206645D01*
X99707379Y-71156403D01*
X99707372Y-71156401D01*
X99647844Y-71150000D01*
X99250000Y-71150000D01*
X99250000Y-71934314D01*
X99245606Y-71929920D01*
X99154394Y-71877259D01*
X99052661Y-71850000D01*
X98947339Y-71850000D01*
X98845606Y-71877259D01*
X98754394Y-71929920D01*
X98750000Y-71934314D01*
X98750000Y-71150000D01*
X98352155Y-71150000D01*
X98292627Y-71156401D01*
X98292620Y-71156403D01*
X98157913Y-71206645D01*
X98157906Y-71206649D01*
X98042812Y-71292809D01*
X98042809Y-71292812D01*
X97956649Y-71407906D01*
X97956645Y-71407913D01*
X97906403Y-71542620D01*
X97906401Y-71542627D01*
X97900000Y-71602155D01*
X93500500Y-71602155D01*
X93500500Y-68602155D01*
X97900000Y-68602155D01*
X97900000Y-69000000D01*
X98684314Y-69000000D01*
X98679920Y-69004394D01*
X98627259Y-69095606D01*
X98600000Y-69197339D01*
X98600000Y-69302661D01*
X98627259Y-69404394D01*
X98679920Y-69495606D01*
X98684314Y-69500000D01*
X97900000Y-69500000D01*
X97900000Y-69897844D01*
X97906401Y-69957372D01*
X97906403Y-69957379D01*
X97956645Y-70092086D01*
X97956649Y-70092093D01*
X98042809Y-70207187D01*
X98042812Y-70207190D01*
X98157906Y-70293350D01*
X98157913Y-70293354D01*
X98292620Y-70343596D01*
X98292627Y-70343598D01*
X98352155Y-70349999D01*
X98352172Y-70350000D01*
X98750000Y-70350000D01*
X98750000Y-69565686D01*
X98754394Y-69570080D01*
X98845606Y-69622741D01*
X98947339Y-69650000D01*
X99052661Y-69650000D01*
X99154394Y-69622741D01*
X99245606Y-69570080D01*
X99250000Y-69565686D01*
X99250000Y-70350000D01*
X99647828Y-70350000D01*
X99647844Y-70349999D01*
X99707372Y-70343598D01*
X99707379Y-70343596D01*
X99842086Y-70293354D01*
X99842093Y-70293350D01*
X99957187Y-70207190D01*
X99957190Y-70207187D01*
X100043350Y-70092093D01*
X100043354Y-70092086D01*
X100093596Y-69957379D01*
X100093598Y-69957372D01*
X100099924Y-69898543D01*
X103749499Y-69898543D01*
X103787947Y-70091829D01*
X103787950Y-70091839D01*
X103863364Y-70273907D01*
X103863371Y-70273920D01*
X103972860Y-70437781D01*
X103972863Y-70437785D01*
X104112214Y-70577136D01*
X104112218Y-70577139D01*
X104216618Y-70646898D01*
X104261423Y-70700511D01*
X104270130Y-70769836D01*
X104239975Y-70832863D01*
X104216618Y-70853102D01*
X104112218Y-70922860D01*
X104112214Y-70922863D01*
X103972863Y-71062214D01*
X103972860Y-71062218D01*
X103863371Y-71226079D01*
X103863364Y-71226092D01*
X103787950Y-71408160D01*
X103787947Y-71408170D01*
X103749500Y-71601456D01*
X103749500Y-71601459D01*
X103749500Y-71798541D01*
X103749500Y-71798543D01*
X103749499Y-71798543D01*
X103787947Y-71991829D01*
X103787950Y-71991839D01*
X103863364Y-72173907D01*
X103863371Y-72173920D01*
X103972860Y-72337781D01*
X103972863Y-72337785D01*
X104112214Y-72477136D01*
X104112218Y-72477139D01*
X104276079Y-72586628D01*
X104276092Y-72586635D01*
X104429071Y-72650000D01*
X104458165Y-72662051D01*
X104458169Y-72662051D01*
X104458170Y-72662052D01*
X104651456Y-72700500D01*
X104651459Y-72700500D01*
X104848543Y-72700500D01*
X104978582Y-72674632D01*
X105041835Y-72662051D01*
X105223914Y-72586632D01*
X105387782Y-72477139D01*
X105527139Y-72337782D01*
X105636632Y-72173914D01*
X105712051Y-71991835D01*
X105750500Y-71798541D01*
X105750500Y-71601459D01*
X105750500Y-71601456D01*
X105712052Y-71408170D01*
X105712051Y-71408169D01*
X105712051Y-71408165D01*
X105664271Y-71292812D01*
X105636635Y-71226092D01*
X105636628Y-71226079D01*
X105527139Y-71062218D01*
X105527136Y-71062214D01*
X105387785Y-70922863D01*
X105387777Y-70922857D01*
X105283381Y-70853102D01*
X105238575Y-70799490D01*
X105229868Y-70730165D01*
X105260022Y-70667138D01*
X105283381Y-70646898D01*
X105347553Y-70604019D01*
X105387782Y-70577139D01*
X105527139Y-70437782D01*
X105636632Y-70273914D01*
X105712051Y-70091835D01*
X105750500Y-69898541D01*
X105750500Y-69701459D01*
X105750500Y-69701456D01*
X105712052Y-69508170D01*
X105712051Y-69508169D01*
X105712051Y-69508165D01*
X105669068Y-69404394D01*
X105636635Y-69326092D01*
X105636628Y-69326079D01*
X105527139Y-69162218D01*
X105527136Y-69162214D01*
X105387785Y-69022863D01*
X105387781Y-69022860D01*
X105223920Y-68913371D01*
X105223907Y-68913364D01*
X105041839Y-68837950D01*
X105041829Y-68837947D01*
X104848543Y-68799500D01*
X104848541Y-68799500D01*
X104651459Y-68799500D01*
X104651457Y-68799500D01*
X104458170Y-68837947D01*
X104458160Y-68837950D01*
X104276092Y-68913364D01*
X104276079Y-68913371D01*
X104112218Y-69022860D01*
X104112214Y-69022863D01*
X103972863Y-69162214D01*
X103972860Y-69162218D01*
X103863371Y-69326079D01*
X103863364Y-69326092D01*
X103787950Y-69508160D01*
X103787947Y-69508170D01*
X103749500Y-69701456D01*
X103749500Y-69701459D01*
X103749500Y-69898541D01*
X103749500Y-69898543D01*
X103749499Y-69898543D01*
X100099924Y-69898543D01*
X100099999Y-69897844D01*
X100100000Y-69897827D01*
X100100000Y-69500000D01*
X99315686Y-69500000D01*
X99320080Y-69495606D01*
X99372741Y-69404394D01*
X99400000Y-69302661D01*
X99400000Y-69197339D01*
X99372741Y-69095606D01*
X99320080Y-69004394D01*
X99315686Y-69000000D01*
X100100000Y-69000000D01*
X100100000Y-68602172D01*
X100099999Y-68602155D01*
X100093598Y-68542627D01*
X100093596Y-68542620D01*
X100043354Y-68407913D01*
X100043350Y-68407906D01*
X99957190Y-68292812D01*
X99957187Y-68292809D01*
X99842093Y-68206649D01*
X99842086Y-68206645D01*
X99707379Y-68156403D01*
X99707372Y-68156401D01*
X99647844Y-68150000D01*
X99250000Y-68150000D01*
X99250000Y-68934314D01*
X99245606Y-68929920D01*
X99154394Y-68877259D01*
X99052661Y-68850000D01*
X98947339Y-68850000D01*
X98845606Y-68877259D01*
X98754394Y-68929920D01*
X98750000Y-68934314D01*
X98750000Y-68150000D01*
X98352155Y-68150000D01*
X98292627Y-68156401D01*
X98292620Y-68156403D01*
X98157913Y-68206645D01*
X98157906Y-68206649D01*
X98042812Y-68292809D01*
X98042809Y-68292812D01*
X97956649Y-68407906D01*
X97956645Y-68407913D01*
X97906403Y-68542620D01*
X97906401Y-68542627D01*
X97900000Y-68602155D01*
X93500500Y-68602155D01*
X93500500Y-67374500D01*
X93520185Y-67307461D01*
X93572989Y-67261706D01*
X93624500Y-67250500D01*
X114875500Y-67250500D01*
X114942539Y-67270185D01*
G37*
%TD.AperFunction*%
%TD*%
M02*
