%TF.GenerationSoftware,KiCad,Pcbnew,9.0.2*%
%TF.CreationDate,2025-07-06T19:38:22+10:00*%
%TF.ProjectId,RiscPcPcbRepair,52697363-5063-4506-9362-526570616972,rev?*%
%TF.SameCoordinates,Original*%
%TF.FileFunction,Copper,L1,Top*%
%TF.FilePolarity,Positive*%
%FSLAX46Y46*%
G04 Gerber Fmt 4.6, Leading zero omitted, Abs format (unit mm)*
G04 Created by KiCad (PCBNEW 9.0.2) date 2025-07-06 19:38:22*
%MOMM*%
%LPD*%
G01*
G04 APERTURE LIST*
G04 Aperture macros list*
%AMRoundRect*
0 Rectangle with rounded corners*
0 $1 Rounding radius*
0 $2 $3 $4 $5 $6 $7 $8 $9 X,Y pos of 4 corners*
0 Add a 4 corners polygon primitive as box body*
4,1,4,$2,$3,$4,$5,$6,$7,$8,$9,$2,$3,0*
0 Add four circle primitives for the rounded corners*
1,1,$1+$1,$2,$3*
1,1,$1+$1,$4,$5*
1,1,$1+$1,$6,$7*
1,1,$1+$1,$8,$9*
0 Add four rect primitives between the rounded corners*
20,1,$1+$1,$2,$3,$4,$5,0*
20,1,$1+$1,$4,$5,$6,$7,0*
20,1,$1+$1,$6,$7,$8,$9,0*
20,1,$1+$1,$8,$9,$2,$3,0*%
G04 Aperture macros list end*
%TA.AperFunction,ComponentPad*%
%ADD10R,1.000000X1.000000*%
%TD*%
%TA.AperFunction,SMDPad,CuDef*%
%ADD11RoundRect,0.250000X0.250000X0.475000X-0.250000X0.475000X-0.250000X-0.475000X0.250000X-0.475000X0*%
%TD*%
%TA.AperFunction,SMDPad,CuDef*%
%ADD12RoundRect,0.250000X-0.475000X0.250000X-0.475000X-0.250000X0.475000X-0.250000X0.475000X0.250000X0*%
%TD*%
%TA.AperFunction,SMDPad,CuDef*%
%ADD13RoundRect,0.137500X-0.662500X-0.137500X0.662500X-0.137500X0.662500X0.137500X-0.662500X0.137500X0*%
%TD*%
%TA.AperFunction,SMDPad,CuDef*%
%ADD14RoundRect,0.150000X-0.875000X-0.150000X0.875000X-0.150000X0.875000X0.150000X-0.875000X0.150000X0*%
%TD*%
%TA.AperFunction,ViaPad*%
%ADD15C,0.600000*%
%TD*%
%TA.AperFunction,Conductor*%
%ADD16C,1.000000*%
%TD*%
%TA.AperFunction,Conductor*%
%ADD17C,0.400000*%
%TD*%
%TA.AperFunction,Conductor*%
%ADD18C,0.200000*%
%TD*%
%TA.AperFunction,Conductor*%
%ADD19C,0.250000*%
%TD*%
G04 APERTURE END LIST*
D10*
%TO.P,+5V2,1,1*%
%TO.N,Net-(+5V2-Pad1)*%
X119018996Y-132374182D03*
%TD*%
%TO.P,GND2,1,1*%
%TO.N,GND*%
X138000000Y-124500000D03*
%TD*%
%TO.P,+5V1,1,1*%
%TO.N,+5V*%
X136500000Y-120000000D03*
%TD*%
%TO.P,V5,1,1*%
%TO.N,Vcd<5>*%
X106915035Y-128768176D03*
%TD*%
%TO.P,D4,1,1*%
%TO.N,D<4>*%
X136825930Y-131558023D03*
%TD*%
%TO.P,V0,1,1*%
%TO.N,Vcd<0>*%
X106866989Y-121320991D03*
%TD*%
%TO.P,V6,1,1*%
%TO.N,Vcd<6>*%
X107027261Y-126456098D03*
%TD*%
%TO.P,V7,1,1*%
%TO.N,Vcd<7>*%
X107027261Y-123813549D03*
%TD*%
D11*
%TO.P,C2,1*%
%TO.N,GND*%
X122450000Y-131500000D03*
%TO.P,C2,2*%
%TO.N,Net-(+5V2-Pad1)*%
X120550000Y-131500000D03*
%TD*%
D12*
%TO.P,C1,1*%
%TO.N,+5V*%
X138000000Y-121550000D03*
%TO.P,C1,2*%
%TO.N,GND*%
X138000000Y-123450000D03*
%TD*%
D10*
%TO.P,V2,1,1*%
%TO.N,Vcd<2>*%
X111358016Y-124962516D03*
%TD*%
%TO.P,V1,1,1*%
%TO.N,Vcd<1>*%
X111351433Y-122612390D03*
%TD*%
%TO.P,V3,1,1*%
%TO.N,Vcd<3>*%
X112679979Y-127117096D03*
%TD*%
%TO.P,V4,1,1*%
%TO.N,Vcd<4>*%
X111348523Y-130175806D03*
%TD*%
%TO.P,D5,1,1*%
%TO.N,D<5>*%
X132228249Y-129109471D03*
%TD*%
%TO.P,D6,1,1*%
%TO.N,D<6>*%
X132321584Y-126469781D03*
%TD*%
%TO.P,D7,1,1*%
%TO.N,D<7>*%
X132345046Y-124019662D03*
%TD*%
%TO.P,Cdoe\u002A1,1,1*%
%TO.N,Cdoe\u002A*%
X132392644Y-121238653D03*
%TD*%
%TO.P,GND1,1,1*%
%TO.N,GND*%
X125961492Y-131528509D03*
%TD*%
%TO.P,D3,1,1*%
%TO.N,D<3>*%
X125982135Y-128944390D03*
%TD*%
%TO.P,D2,1,1*%
%TO.N,D<2>*%
X125898722Y-126441976D03*
%TD*%
%TO.P,D1,1,1*%
%TO.N,D<1>*%
X126000000Y-124000000D03*
%TD*%
%TO.P,D0,1,1*%
%TO.N,D<0>*%
X125893184Y-121321410D03*
%TD*%
D13*
%TO.P,RP16,1,R1.1*%
%TO.N,Vcd<0>*%
X109302270Y-121361620D03*
%TO.P,RP16,2,R2.1*%
%TO.N,Vcd<1>*%
X109302270Y-122631620D03*
%TO.P,RP16,3,R3.1*%
%TO.N,Vcd<7>*%
X109302270Y-123901620D03*
%TO.P,RP16,4,R4.1*%
%TO.N,Vcd<2>*%
X109302270Y-125171620D03*
%TO.P,RP16,5,R5.1*%
%TO.N,Vcd<6>*%
X109302270Y-126441620D03*
%TO.P,RP16,6,R6.1*%
%TO.N,Vcd<3>*%
X109302270Y-127711620D03*
%TO.P,RP16,7,R7.1*%
%TO.N,Vcd<5>*%
X109302270Y-128981620D03*
%TO.P,RP16,8,R8.1*%
%TO.N,Vcd<4>*%
X109302270Y-130251620D03*
%TO.P,RP16,9,R8.2*%
%TO.N,Net-(IC33-2Y3)*%
X115802270Y-130251620D03*
%TO.P,RP16,10,R7.2*%
%TO.N,Net-(IC33-2Y2)*%
X115802270Y-128981620D03*
%TO.P,RP16,11,R6.2*%
%TO.N,Net-(IC33-1Y3)*%
X115802270Y-127711620D03*
%TO.P,RP16,12,R5.2*%
%TO.N,Net-(IC33-2Y1)*%
X115802270Y-126441620D03*
%TO.P,RP16,13,R4.2*%
%TO.N,Net-(IC33-1Y2)*%
X115802270Y-125171620D03*
%TO.P,RP16,14,R3.2*%
%TO.N,Net-(IC33-2Y0)*%
X115802270Y-123901620D03*
%TO.P,RP16,15,R2.2*%
%TO.N,Net-(IC33-1Y1)*%
X115802270Y-122631620D03*
%TO.P,RP16,16,R1.2*%
%TO.N,Net-(IC33-1Y0)*%
X115802270Y-121361620D03*
%TD*%
D14*
%TO.P,IC33,20,VCC*%
%TO.N,+5V*%
X133799122Y-120193649D03*
%TO.P,IC33,19,2OE*%
%TO.N,Cdoe\u002A*%
X133799122Y-121463649D03*
%TO.P,IC33,18,1Y0*%
%TO.N,Net-(IC33-1Y0)*%
X133799122Y-122733649D03*
%TO.P,IC33,17,2A0*%
%TO.N,D<7>*%
X133799122Y-124003649D03*
%TO.P,IC33,16,1Y1*%
%TO.N,Net-(IC33-1Y1)*%
X133799122Y-125273649D03*
%TO.P,IC33,15,2A1*%
%TO.N,D<6>*%
X133799122Y-126543649D03*
%TO.P,IC33,14,1Y2*%
%TO.N,Net-(IC33-1Y2)*%
X133799122Y-127813649D03*
%TO.P,IC33,13,2A2*%
%TO.N,D<5>*%
X133799122Y-129083649D03*
%TO.P,IC33,12,1Y3*%
%TO.N,Net-(IC33-1Y3)*%
X133799122Y-130353649D03*
%TO.P,IC33,11,2A3*%
%TO.N,D<4>*%
X133799122Y-131623649D03*
%TO.P,IC33,10,GND*%
%TO.N,GND*%
X124499122Y-131623649D03*
%TO.P,IC33,9,2Y3*%
%TO.N,Net-(IC33-2Y3)*%
X124499122Y-130353649D03*
%TO.P,IC33,8,1A3*%
%TO.N,D<3>*%
X124499122Y-129083649D03*
%TO.P,IC33,7,2Y2*%
%TO.N,Net-(IC33-2Y2)*%
X124499122Y-127813649D03*
%TO.P,IC33,6,1A2*%
%TO.N,D<2>*%
X124499122Y-126543649D03*
%TO.P,IC33,5,2Y1*%
%TO.N,Net-(IC33-2Y1)*%
X124499122Y-125273649D03*
%TO.P,IC33,4,1A1*%
%TO.N,D<1>*%
X124499122Y-124003649D03*
%TO.P,IC33,3,2Y0*%
%TO.N,Net-(IC33-2Y0)*%
X124499122Y-122733649D03*
%TO.P,IC33,2,1A0*%
%TO.N,D<0>*%
X124499122Y-121463649D03*
%TO.P,IC33,1,1OE*%
%TO.N,Cdoe\u002A*%
X124499122Y-120193649D03*
%TD*%
D10*
%TO.P,GND3,1,1*%
%TO.N,GND*%
X120280427Y-120505566D03*
%TD*%
%TO.P,GND4,1,1*%
%TO.N,GND*%
X112000000Y-132708066D03*
%TD*%
D15*
%TO.N,Net-(IC33-1Y3)*%
X130500000Y-130353649D03*
%TO.N,Net-(IC33-1Y2)*%
X130186351Y-127813649D03*
%TO.N,Net-(IC33-1Y1)*%
X129584659Y-125273649D03*
%TO.N,Net-(IC33-1Y0)*%
X130714803Y-122733649D03*
%TO.N,Net-(IC33-1Y3)*%
X114000000Y-128000000D03*
%TO.N,Net-(IC33-1Y2)*%
X114000000Y-125171620D03*
%TO.N,Net-(IC33-1Y1)*%
X114000000Y-122631620D03*
%TO.N,Net-(IC33-1Y0)*%
X114000000Y-121361620D03*
%TD*%
D16*
%TO.N,GND*%
X138000000Y-123450000D02*
X138000000Y-124500000D01*
D17*
%TO.N,+5V*%
X136500000Y-120000000D02*
X136500000Y-120050000D01*
D16*
X136500000Y-120050000D02*
X138000000Y-121550000D01*
%TO.N,GND*%
X124499122Y-131623649D02*
X125866352Y-131623649D01*
X125866352Y-131623649D02*
X125961492Y-131528509D01*
%TO.N,Net-(+5V2-Pad1)*%
X120500000Y-131500000D02*
X119893178Y-131500000D01*
X119893178Y-131500000D02*
X119018996Y-132374182D01*
%TO.N,GND*%
X124499122Y-131623649D02*
X122523649Y-131623649D01*
X122523649Y-131623649D02*
X122400000Y-131500000D01*
D17*
%TO.N,Net-(IC33-1Y2)*%
X133799122Y-127813649D02*
X130186351Y-127813649D01*
%TO.N,Net-(IC33-1Y3)*%
X133799122Y-130353649D02*
X130500000Y-130353649D01*
%TO.N,Net-(IC33-1Y1)*%
X133799122Y-125273649D02*
X129584659Y-125273649D01*
%TO.N,Net-(IC33-1Y0)*%
X133799122Y-122733649D02*
X130714803Y-122733649D01*
%TO.N,Net-(IC33-2Y0)*%
X115802270Y-123901620D02*
X116602269Y-123901620D01*
X116602269Y-123901620D02*
X117003889Y-123500000D01*
X121500000Y-123500000D02*
X122266351Y-122733649D01*
X117003889Y-123500000D02*
X121500000Y-123500000D01*
X122266351Y-122733649D02*
X124102154Y-122733649D01*
%TO.N,Net-(IC33-1Y0)*%
X115802270Y-121361620D02*
X114000000Y-121361620D01*
%TO.N,+5V*%
X136500000Y-120000000D02*
X136306351Y-120193649D01*
D16*
X136306351Y-120193649D02*
X134186420Y-120193649D01*
D17*
%TO.N,Cdoe\u002A*%
X132392644Y-121238653D02*
X132617640Y-121463649D01*
X132617640Y-121463649D02*
X133349130Y-121463649D01*
%TO.N,Vcd<2>*%
X111358016Y-124962516D02*
X111148912Y-125171620D01*
X111148912Y-125171620D02*
X109720478Y-125171620D01*
%TO.N,Net-(IC33-1Y3)*%
X114211620Y-127788380D02*
X114000000Y-128000000D01*
D18*
X114211620Y-127711620D02*
X114211620Y-127788380D01*
D17*
X115802270Y-127711620D02*
X114211620Y-127711620D01*
%TO.N,Net-(IC33-1Y2)*%
X115802270Y-125171620D02*
X114000000Y-125171620D01*
%TO.N,Net-(IC33-1Y1)*%
X115802270Y-122631620D02*
X114000000Y-122631620D01*
%TO.N,Net-(IC33-2Y1)*%
X115802270Y-126441620D02*
X116602269Y-126441620D01*
X116602269Y-126441620D02*
X117770240Y-125273649D01*
X117770240Y-125273649D02*
X124499122Y-125273649D01*
%TO.N,Net-(IC33-2Y2)*%
X115802270Y-128981620D02*
X116602269Y-128981620D01*
X116602269Y-128981620D02*
X117770240Y-127813649D01*
X117770240Y-127813649D02*
X124499122Y-127813649D01*
%TO.N,Net-(IC33-2Y3)*%
X115802270Y-130251620D02*
X124397093Y-130251620D01*
D18*
X124397093Y-130251620D02*
X124499122Y-130353649D01*
D17*
%TO.N,D<4>*%
X133799122Y-131623649D02*
X136760304Y-131623649D01*
D18*
X136760304Y-131623649D02*
X136825930Y-131558023D01*
D17*
%TO.N,D<6>*%
X133799122Y-126543649D02*
X132395452Y-126543649D01*
D18*
X132395452Y-126543649D02*
X132321584Y-126469781D01*
D17*
%TO.N,D<7>*%
X133799122Y-124003649D02*
X132361059Y-124003649D01*
D18*
X132361059Y-124003649D02*
X132345046Y-124019662D01*
D17*
%TO.N,D<5>*%
X132228249Y-129109471D02*
X133773300Y-129109471D01*
D18*
X133773300Y-129109471D02*
X133799122Y-129083649D01*
D17*
%TO.N,D<3>*%
X125982135Y-128944390D02*
X124638381Y-128944390D01*
%TO.N,D<2>*%
X125898722Y-126441976D02*
X124600795Y-126441976D01*
%TO.N,D<1>*%
X126000000Y-124000000D02*
X124502771Y-124000000D01*
D18*
X124502771Y-124000000D02*
X124499122Y-124003649D01*
D17*
%TO.N,D<0>*%
X125893184Y-121321410D02*
X124641361Y-121321410D01*
%TO.N,Cdoe\u002A*%
X124499122Y-120193649D02*
X131347640Y-120193649D01*
X131347640Y-120193649D02*
X132392644Y-121238653D01*
%TO.N,Vcd<0>*%
X106866989Y-121320991D02*
X109261641Y-121320991D01*
D18*
X109261641Y-121320991D02*
X109302270Y-121361620D01*
D17*
%TO.N,Vcd<1>*%
X109302270Y-122631620D02*
X111332203Y-122631620D01*
D18*
X111332203Y-122631620D02*
X111351433Y-122612390D01*
D17*
%TO.N,Vcd<7>*%
X107027261Y-123813549D02*
X109214199Y-123813549D01*
D18*
X109214199Y-123813549D02*
X109302270Y-123901620D01*
D17*
%TO.N,Vcd<3>*%
X109302270Y-127711620D02*
X112085455Y-127711620D01*
X112085455Y-127711620D02*
X112679979Y-127117096D01*
%TO.N,Vcd<6>*%
X109302270Y-126441620D02*
X107041739Y-126441620D01*
D18*
X107041739Y-126441620D02*
X107027261Y-126456098D01*
D17*
%TO.N,Vcd<5>*%
X109302270Y-128981620D02*
X107128479Y-128981620D01*
D18*
X107128479Y-128981620D02*
X106915035Y-128768176D01*
D17*
%TO.N,Vcd<4>*%
X111348523Y-130175806D02*
X109378084Y-130175806D01*
D19*
X109378084Y-130175806D02*
X109302270Y-130251620D01*
%TD*%
M02*
