%TF.GenerationSoftware,KiCad,Pcbnew,9.0.8*%
%TF.CreationDate,2026-05-05T00:31:32+10:00*%
%TF.ProjectId,RiscPcRtcRepair,52697363-5063-4527-9463-526570616972,1*%
%TF.SameCoordinates,Original*%
%TF.FileFunction,Copper,L1,Top*%
%TF.FilePolarity,Positive*%
%FSLAX46Y46*%
G04 Gerber Fmt 4.6, Leading zero omitted, Abs format (unit mm)*
G04 Created by KiCad (PCBNEW 9.0.8) date 2026-05-05 00:31:32*
%MOMM*%
%LPD*%
G01*
G04 APERTURE LIST*
G04 Aperture macros list*
%AMRoundRect*
0 Rectangle with rounded corners*
0 $1 Rounding radius*
0 $2 $3 $4 $5 $6 $7 $8 $9 X,Y pos of 4 corners*
0 Add a 4 corners polygon primitive as box body*
4,1,4,$2,$3,$4,$5,$6,$7,$8,$9,$2,$3,0*
0 Add four circle primitives for the rounded corners*
1,1,$1+$1,$2,$3*
1,1,$1+$1,$4,$5*
1,1,$1+$1,$6,$7*
1,1,$1+$1,$8,$9*
0 Add four rect primitives between the rounded corners*
20,1,$1+$1,$2,$3,$4,$5,0*
20,1,$1+$1,$4,$5,$6,$7,0*
20,1,$1+$1,$6,$7,$8,$9,0*
20,1,$1+$1,$8,$9,$2,$3,0*%
G04 Aperture macros list end*
%TA.AperFunction,ComponentPad*%
%ADD10C,1.000000*%
%TD*%
%TA.AperFunction,ComponentPad*%
%ADD11R,1.200000X1.200000*%
%TD*%
%TA.AperFunction,SMDPad,CuDef*%
%ADD12RoundRect,0.249999X-3.000001X0.850001X-3.000001X-0.850001X3.000001X-0.850001X3.000001X0.850001X0*%
%TD*%
%TA.AperFunction,ComponentPad*%
%ADD13C,2.000000*%
%TD*%
%TA.AperFunction,SMDPad,CuDef*%
%ADD14RoundRect,0.225000X-0.375000X0.225000X-0.375000X-0.225000X0.375000X-0.225000X0.375000X0.225000X0*%
%TD*%
%TA.AperFunction,SMDPad,CuDef*%
%ADD15RoundRect,0.250000X0.350000X0.450000X-0.350000X0.450000X-0.350000X-0.450000X0.350000X-0.450000X0*%
%TD*%
%TA.AperFunction,SMDPad,CuDef*%
%ADD16RoundRect,0.250000X-0.475000X0.337500X-0.475000X-0.337500X0.475000X-0.337500X0.475000X0.337500X0*%
%TD*%
%TA.AperFunction,SMDPad,CuDef*%
%ADD17R,2.000000X2.000000*%
%TD*%
%TA.AperFunction,ComponentPad*%
%ADD18RoundRect,0.250000X0.625000X-0.350000X0.625000X0.350000X-0.625000X0.350000X-0.625000X-0.350000X0*%
%TD*%
%TA.AperFunction,ComponentPad*%
%ADD19O,1.750000X1.200000*%
%TD*%
%TA.AperFunction,SMDPad,CuDef*%
%ADD20RoundRect,0.073750X-0.221250X0.891250X-0.221250X-0.891250X0.221250X-0.891250X0.221250X0.891250X0*%
%TD*%
%TA.AperFunction,ComponentPad*%
%ADD21C,1.500000*%
%TD*%
%TA.AperFunction,SMDPad,CuDef*%
%ADD22RoundRect,0.250000X0.337500X0.475000X-0.337500X0.475000X-0.337500X-0.475000X0.337500X-0.475000X0*%
%TD*%
%TA.AperFunction,SMDPad,CuDef*%
%ADD23RoundRect,0.250000X-1.075000X-0.550000X1.075000X-0.550000X1.075000X0.550000X-1.075000X0.550000X0*%
%TD*%
%TA.AperFunction,ViaPad*%
%ADD24C,0.600000*%
%TD*%
%TA.AperFunction,Conductor*%
%ADD25C,1.000000*%
%TD*%
%TA.AperFunction,Conductor*%
%ADD26C,0.400000*%
%TD*%
G04 APERTURE END LIST*
D10*
%TO.P,Y1,1,1*%
%TO.N,Net-(U1-OSCI)*%
X104750000Y-69800000D03*
%TO.P,Y1,2,2*%
%TO.N,Net-(U1-OSCO)*%
X104750000Y-71700000D03*
D11*
%TO.P,Y1,3,3*%
%TO.N,GND*%
X99000000Y-69250000D03*
D12*
X99000000Y-70750000D03*
D11*
X99000000Y-72250000D03*
%TD*%
D13*
%TO.P,+5V1,1,1*%
%TO.N,+5V*%
X93000000Y-92500000D03*
%TD*%
D14*
%TO.P,D2,1,K*%
%TO.N,Net-(D1-K)*%
X107000000Y-91850000D03*
%TO.P,D2,2,A*%
%TO.N,Net-(BT1-+)*%
X107000000Y-95150000D03*
%TD*%
D15*
%TO.P,R1,1*%
%TO.N,Net-(D1-K)*%
X112000000Y-88500000D03*
%TO.P,R1,2*%
%TO.N,Net-(U1-~{INT})*%
X110000000Y-88500000D03*
%TD*%
D16*
%TO.P,C1,1*%
%TO.N,Net-(D1-K)*%
X108000000Y-69462500D03*
%TO.P,C1,2*%
%TO.N,Net-(U1-OSCI)*%
X108000000Y-71537500D03*
%TD*%
D17*
%TO.P,INT1,1,1*%
%TO.N,Net-(U1-~{INT})*%
X111000000Y-84500000D03*
%TD*%
D18*
%TO.P,BT,1,+*%
%TO.N,Net-(BT1-+)*%
X99067158Y-94500000D03*
D19*
%TO.P,BT,2,-*%
%TO.N,GND*%
X99067158Y-92500000D03*
%TD*%
D16*
%TO.P,C2,1*%
%TO.N,Net-(D1-K)*%
X111500000Y-69462500D03*
%TO.P,C2,2*%
%TO.N,Net-(U1-OSCI)*%
X111500000Y-71537500D03*
%TD*%
D14*
%TO.P,D1,1,K*%
%TO.N,Net-(D1-K)*%
X111000000Y-91850000D03*
%TO.P,D1,2,A*%
%TO.N,+5V*%
X111000000Y-95150000D03*
%TD*%
D20*
%TO.P,U1,1,OSCI*%
%TO.N,Net-(U1-OSCI)*%
X102563166Y-76905968D03*
%TO.P,U1,2,OSCO*%
%TO.N,Net-(U1-OSCO)*%
X101293166Y-76905968D03*
%TO.P,U1,3,A0*%
%TO.N,GND*%
X100023166Y-76905968D03*
%TO.P,U1,4,VSS*%
X98753166Y-76905968D03*
%TO.P,U1,5,SDA*%
%TO.N,Net-(U1-SDA)*%
X98753166Y-86335968D03*
%TO.P,U1,6,SCL*%
%TO.N,Net-(U1-SCL)*%
X100023166Y-86335968D03*
%TO.P,U1,7,~{INT}*%
%TO.N,Net-(U1-~{INT})*%
X101293166Y-86335968D03*
%TO.P,U1,8,VDD*%
%TO.N,Net-(D1-K)*%
X102563166Y-86335968D03*
%TD*%
D21*
%TO.P,SDA,1,1*%
%TO.N,Net-(U1-SDA)*%
X109221600Y-79514076D03*
%TD*%
%TO.P,SCL,1,1*%
%TO.N,Net-(U1-SCL)*%
X110372127Y-80855908D03*
%TD*%
D13*
%TO.P,GND,1,1*%
%TO.N,GND*%
X93000000Y-70750000D03*
%TD*%
%TO.P,+5V,1,1*%
%TO.N,+5V*%
X93000000Y-81250000D03*
%TD*%
D22*
%TO.P,C3,1*%
%TO.N,GND*%
X108087500Y-86050000D03*
%TO.P,C3,2*%
%TO.N,Net-(D1-K)*%
X106012500Y-86050000D03*
%TD*%
D23*
%TO.P,C4,1*%
%TO.N,Net-(D1-K)*%
X109150000Y-75500000D03*
%TO.P,C4,2*%
%TO.N,GND*%
X112500000Y-75500000D03*
%TD*%
D24*
%TO.N,GND*%
X109050000Y-86050000D03*
X112500000Y-77500000D03*
%TO.N,Net-(U1-~{INT})*%
X101625000Y-87875000D03*
%TO.N,Net-(U1-SCL)*%
X100023166Y-84750000D03*
%TO.N,Net-(U1-SDA)*%
X98750000Y-84250000D03*
%TO.N,GND*%
X100000000Y-75500000D03*
X98753166Y-75503166D03*
%TO.N,Net-(U1-~{INT})*%
X111000000Y-87000000D03*
%TD*%
D25*
%TO.N,Net-(D1-K)*%
X102563166Y-82086834D02*
X102563166Y-84500000D01*
%TO.N,GND*%
X99000000Y-70750000D02*
X93800000Y-70750000D01*
X107975000Y-86050000D02*
X109050000Y-86050000D01*
X112500000Y-75500000D02*
X112500000Y-77500000D01*
%TO.N,Net-(D1-K)*%
X105787500Y-86000000D02*
X102563166Y-86000000D01*
X102563166Y-86335968D02*
X102563166Y-86000000D01*
X102563166Y-86000000D02*
X102563166Y-84500000D01*
D26*
X102600666Y-84462500D02*
X102563166Y-84500000D01*
%TO.N,Net-(U1-~{INT})*%
X101625000Y-87875000D02*
X101293166Y-87543166D01*
X101293166Y-87543166D02*
X101293166Y-86335968D01*
D25*
%TO.N,Net-(D1-K)*%
X111000000Y-91850000D02*
X107000000Y-91850000D01*
X102563166Y-82086834D02*
X109150000Y-75500000D01*
X102563166Y-86563166D02*
X107000000Y-91000000D01*
X107000000Y-91000000D02*
X107000000Y-91850000D01*
D26*
X102563166Y-86335968D02*
X102563166Y-86563166D01*
%TO.N,Net-(U1-SCL)*%
X100023166Y-86335968D02*
X100023166Y-84750000D01*
%TO.N,Net-(U1-SDA)*%
X98753166Y-84253166D02*
X98750000Y-84250000D01*
X98753166Y-86335968D02*
X98753166Y-84253166D01*
D25*
%TO.N,GND*%
X100023166Y-75523166D02*
X100000000Y-75500000D01*
X100023166Y-76905968D02*
X100023166Y-75523166D01*
X98753166Y-75503166D02*
X98750000Y-75500000D01*
X98753166Y-76905968D02*
X98753166Y-75503166D01*
D26*
%TO.N,Net-(D1-K)*%
X111500000Y-69462500D02*
X112462500Y-69462500D01*
X112462500Y-69462500D02*
X113250000Y-70250000D01*
X113250000Y-72750000D02*
X112500000Y-73500000D01*
X113250000Y-70250000D02*
X113250000Y-72750000D01*
X112500000Y-73500000D02*
X109500000Y-73500000D01*
X109500000Y-73500000D02*
X109150000Y-73850000D01*
X109150000Y-73850000D02*
X109150000Y-75500000D01*
%TO.N,Net-(U1-OSCI)*%
X111500000Y-71537500D02*
X108000000Y-71537500D01*
%TO.N,Net-(D1-K)*%
X102563166Y-85821440D02*
X102563166Y-86335968D01*
D25*
%TO.N,Net-(BT1-+)*%
X99067158Y-94500000D02*
X106350000Y-94500000D01*
X106350000Y-94500000D02*
X107000000Y-95150000D01*
D26*
%TO.N,Net-(D1-K)*%
X112000000Y-88500000D02*
X112000000Y-90850000D01*
X112000000Y-90850000D02*
X111000000Y-91850000D01*
X108000000Y-69462500D02*
X108962500Y-69462500D01*
X109500000Y-75150000D02*
X109150000Y-75500000D01*
X111500000Y-69462500D02*
X108000000Y-69462500D01*
%TO.N,Net-(U1-OSCI)*%
X108000000Y-71537500D02*
X106962500Y-71537500D01*
X106962500Y-71537500D02*
X102563166Y-75936834D01*
X102563166Y-75936834D02*
X102563166Y-76905968D01*
X104799844Y-69928660D02*
X106391160Y-69928660D01*
X106391160Y-69928660D02*
X108000000Y-71537500D01*
%TO.N,Net-(U1-OSCO)*%
X104799844Y-71828660D02*
X101293166Y-75335338D01*
X101293166Y-75335338D02*
X101293166Y-76905968D01*
%TO.N,Net-(U1-~{INT})*%
X110000000Y-88000000D02*
X111000000Y-87000000D01*
X110000000Y-88500000D02*
X110000000Y-88000000D01*
X111000000Y-87000000D02*
X111000000Y-84500000D01*
%TD*%
%TA.AperFunction,Conductor*%
%TO.N,+5V*%
G36*
X114942539Y-67270185D02*
G01*
X114988294Y-67322989D01*
X114999500Y-67374500D01*
X114999500Y-98125500D01*
X114979815Y-98192539D01*
X114927011Y-98238294D01*
X114875500Y-98249500D01*
X93624500Y-98249500D01*
X93557461Y-98229815D01*
X93511706Y-98177011D01*
X93500500Y-98125500D01*
X93500500Y-92413389D01*
X97691658Y-92413389D01*
X97691658Y-92586610D01*
X97715477Y-92737003D01*
X97718756Y-92757701D01*
X97772285Y-92922445D01*
X97850926Y-93076788D01*
X97952744Y-93216928D01*
X97952746Y-93216930D01*
X98060285Y-93324469D01*
X98093770Y-93385792D01*
X98088786Y-93455484D01*
X98046914Y-93511417D01*
X98037702Y-93517688D01*
X97973502Y-93557287D01*
X97849447Y-93681342D01*
X97757345Y-93830663D01*
X97757343Y-93830668D01*
X97745450Y-93866559D01*
X97702159Y-93997203D01*
X97702159Y-93997204D01*
X97702158Y-93997204D01*
X97691658Y-94099983D01*
X97691658Y-94900001D01*
X97691659Y-94900019D01*
X97702158Y-95002796D01*
X97702159Y-95002799D01*
X97757343Y-95169331D01*
X97757344Y-95169334D01*
X97849446Y-95318656D01*
X97973502Y-95442712D01*
X98122824Y-95534814D01*
X98289361Y-95589999D01*
X98392149Y-95600500D01*
X99742166Y-95600499D01*
X99844955Y-95589999D01*
X100011492Y-95534814D01*
X100037194Y-95518960D01*
X100102290Y-95500500D01*
X105812751Y-95500500D01*
X105879790Y-95520185D01*
X105925545Y-95572989D01*
X105930455Y-95585491D01*
X105962370Y-95681805D01*
X105962996Y-95683694D01*
X105963001Y-95683705D01*
X106052029Y-95828040D01*
X106052032Y-95828044D01*
X106171955Y-95947967D01*
X106171959Y-95947970D01*
X106316294Y-96036998D01*
X106316297Y-96036999D01*
X106316303Y-96037003D01*
X106477292Y-96090349D01*
X106576655Y-96100500D01*
X106655608Y-96100499D01*
X106703065Y-96109939D01*
X106705963Y-96111139D01*
X106708164Y-96112051D01*
X106708168Y-96112051D01*
X106708169Y-96112052D01*
X106901455Y-96150499D01*
X106901458Y-96150500D01*
X106901460Y-96150500D01*
X107098542Y-96150500D01*
X107098543Y-96150499D01*
X107291836Y-96112051D01*
X107296935Y-96109938D01*
X107344390Y-96100499D01*
X107423338Y-96100499D01*
X107423344Y-96100499D01*
X107423352Y-96100498D01*
X107423355Y-96100498D01*
X107477760Y-96094940D01*
X107522708Y-96090349D01*
X107683697Y-96037003D01*
X107828044Y-95947968D01*
X107947968Y-95828044D01*
X108037003Y-95683697D01*
X108090349Y-95522708D01*
X108100500Y-95423345D01*
X108100499Y-94876656D01*
X108090349Y-94777292D01*
X108037003Y-94616303D01*
X108036999Y-94616297D01*
X108036998Y-94616294D01*
X107947970Y-94471959D01*
X107947967Y-94471955D01*
X107828044Y-94352032D01*
X107828040Y-94352029D01*
X107683705Y-94263001D01*
X107683699Y-94262998D01*
X107683697Y-94262997D01*
X107683694Y-94262996D01*
X107522709Y-94209651D01*
X107522695Y-94209648D01*
X107512972Y-94208655D01*
X107448281Y-94182256D01*
X107437899Y-94172979D01*
X107131479Y-93866559D01*
X107131459Y-93866537D01*
X106987785Y-93722863D01*
X106987781Y-93722860D01*
X106823920Y-93613371D01*
X106823907Y-93613364D01*
X106695719Y-93560268D01*
X106695717Y-93560267D01*
X106688524Y-93557288D01*
X106641836Y-93537949D01*
X106545188Y-93518724D01*
X106540870Y-93517865D01*
X106540866Y-93517864D01*
X106448544Y-93499500D01*
X106448541Y-93499500D01*
X100198362Y-93499500D01*
X100131323Y-93479815D01*
X100085568Y-93427011D01*
X100075624Y-93357853D01*
X100104649Y-93294297D01*
X100110681Y-93287819D01*
X100181572Y-93216928D01*
X100283390Y-93076788D01*
X100362031Y-92922445D01*
X100415560Y-92757701D01*
X100442658Y-92586611D01*
X100442658Y-92413389D01*
X100415560Y-92242299D01*
X100362031Y-92077555D01*
X100283390Y-91923212D01*
X100181572Y-91783072D01*
X100059086Y-91660586D01*
X99918946Y-91558768D01*
X99764603Y-91480127D01*
X99599859Y-91426598D01*
X99599857Y-91426597D01*
X99599856Y-91426597D01*
X99468429Y-91405781D01*
X99428769Y-91399500D01*
X98705547Y-91399500D01*
X98665886Y-91405781D01*
X98534460Y-91426597D01*
X98534457Y-91426598D01*
X98378451Y-91477288D01*
X98369710Y-91480128D01*
X98215369Y-91558768D01*
X98135414Y-91616859D01*
X98075230Y-91660586D01*
X98075228Y-91660588D01*
X98075227Y-91660588D01*
X97952746Y-91783069D01*
X97952746Y-91783070D01*
X97952744Y-91783072D01*
X97946607Y-91791519D01*
X97850926Y-91923211D01*
X97772286Y-92077552D01*
X97718755Y-92242302D01*
X97691658Y-92413389D01*
X93500500Y-92413389D01*
X93500500Y-75401460D01*
X97749500Y-75401460D01*
X97749500Y-75598540D01*
X97752498Y-75613614D01*
X97752654Y-75624972D01*
X97752539Y-75625383D01*
X97752666Y-75626669D01*
X97752666Y-77004509D01*
X97752666Y-77004511D01*
X97752665Y-77004511D01*
X97791113Y-77197797D01*
X97791116Y-77197807D01*
X97866530Y-77379874D01*
X97866536Y-77379885D01*
X97936769Y-77484997D01*
X97957646Y-77551674D01*
X97957666Y-77553887D01*
X97957666Y-77834856D01*
X97972445Y-77947119D01*
X97972448Y-77947130D01*
X98030308Y-78086818D01*
X98030309Y-78086820D01*
X98030310Y-78086821D01*
X98122356Y-78206778D01*
X98242313Y-78298824D01*
X98382007Y-78356687D01*
X98494279Y-78371468D01*
X99012052Y-78371467D01*
X99012054Y-78371467D01*
X99124317Y-78356688D01*
X99124316Y-78356688D01*
X99124325Y-78356687D01*
X99264019Y-78298824D01*
X99312679Y-78261486D01*
X99377848Y-78236291D01*
X99446293Y-78250329D01*
X99463653Y-78261486D01*
X99512312Y-78298824D01*
X99588711Y-78330469D01*
X99652007Y-78356687D01*
X99764279Y-78371468D01*
X100282052Y-78371467D01*
X100282054Y-78371467D01*
X100394317Y-78356688D01*
X100394316Y-78356688D01*
X100394325Y-78356687D01*
X100534019Y-78298824D01*
X100582679Y-78261486D01*
X100647848Y-78236291D01*
X100716293Y-78250329D01*
X100733653Y-78261486D01*
X100782312Y-78298824D01*
X100858711Y-78330469D01*
X100922007Y-78356687D01*
X101034279Y-78371468D01*
X101552052Y-78371467D01*
X101552054Y-78371467D01*
X101664317Y-78356688D01*
X101664316Y-78356688D01*
X101664325Y-78356687D01*
X101804019Y-78298824D01*
X101852679Y-78261486D01*
X101917848Y-78236291D01*
X101986293Y-78250329D01*
X102003653Y-78261486D01*
X102052312Y-78298824D01*
X102128711Y-78330469D01*
X102192007Y-78356687D01*
X102304279Y-78371468D01*
X102822052Y-78371467D01*
X102822054Y-78371467D01*
X102934317Y-78356688D01*
X102934316Y-78356688D01*
X102934325Y-78356687D01*
X103074019Y-78298824D01*
X103193976Y-78206778D01*
X103286022Y-78086821D01*
X103343885Y-77947127D01*
X103358666Y-77834855D01*
X103358665Y-76183351D01*
X103378350Y-76116313D01*
X103394979Y-76095676D01*
X106966358Y-72524297D01*
X107027679Y-72490814D01*
X107097371Y-72495798D01*
X107119133Y-72506441D01*
X107205659Y-72559810D01*
X107205660Y-72559810D01*
X107205666Y-72559814D01*
X107372203Y-72614999D01*
X107474991Y-72625500D01*
X108525008Y-72625499D01*
X108525016Y-72625498D01*
X108525019Y-72625498D01*
X108581302Y-72619748D01*
X108627797Y-72614999D01*
X108794334Y-72559814D01*
X108943656Y-72467712D01*
X109067712Y-72343656D01*
X109096549Y-72296902D01*
X109148497Y-72250179D01*
X109202088Y-72238000D01*
X110297912Y-72238000D01*
X110364951Y-72257685D01*
X110403449Y-72296901D01*
X110432288Y-72343656D01*
X110556344Y-72467712D01*
X110705666Y-72559814D01*
X110705670Y-72559815D01*
X110712209Y-72562864D01*
X110710913Y-72565642D01*
X110757031Y-72597585D01*
X110783841Y-72662106D01*
X110771513Y-72730879D01*
X110723961Y-72782070D01*
X110660567Y-72799500D01*
X109431004Y-72799500D01*
X109295677Y-72826418D01*
X109295667Y-72826421D01*
X109168192Y-72879222D01*
X109053454Y-72955887D01*
X108605887Y-73403454D01*
X108529223Y-73518192D01*
X108476421Y-73645668D01*
X108476418Y-73645680D01*
X108464752Y-73704329D01*
X108464752Y-73704330D01*
X108449500Y-73781004D01*
X108449500Y-74075500D01*
X108429815Y-74142539D01*
X108377011Y-74188294D01*
X108325500Y-74199500D01*
X108024999Y-74199500D01*
X108024980Y-74199501D01*
X107922203Y-74210000D01*
X107922200Y-74210001D01*
X107755668Y-74265185D01*
X107755663Y-74265187D01*
X107606342Y-74357289D01*
X107482289Y-74481342D01*
X107390187Y-74630663D01*
X107390186Y-74630666D01*
X107335001Y-74797203D01*
X107335001Y-74797204D01*
X107335000Y-74797204D01*
X107324500Y-74899983D01*
X107324500Y-75859217D01*
X107304815Y-75926256D01*
X107288181Y-75946898D01*
X101925387Y-81309692D01*
X101925384Y-81309695D01*
X101855704Y-81379374D01*
X101786025Y-81449053D01*
X101676537Y-81612913D01*
X101676532Y-81612923D01*
X101623204Y-81741669D01*
X101601115Y-81794995D01*
X101601113Y-81795001D01*
X101581890Y-81891646D01*
X101562666Y-81988289D01*
X101562666Y-84746468D01*
X101542981Y-84813507D01*
X101490177Y-84859262D01*
X101438666Y-84870468D01*
X101034277Y-84870468D01*
X100963850Y-84879740D01*
X100894814Y-84868974D01*
X100842559Y-84822593D01*
X100823666Y-84756801D01*
X100823666Y-84671155D01*
X100823665Y-84671153D01*
X100792904Y-84516510D01*
X100792903Y-84516503D01*
X100745251Y-84401459D01*
X100732563Y-84370827D01*
X100732556Y-84370814D01*
X100644955Y-84239711D01*
X100644952Y-84239707D01*
X100533458Y-84128213D01*
X100533454Y-84128210D01*
X100402351Y-84040609D01*
X100402338Y-84040602D01*
X100256667Y-83980264D01*
X100256655Y-83980261D01*
X100102011Y-83949500D01*
X100102008Y-83949500D01*
X99944324Y-83949500D01*
X99944321Y-83949500D01*
X99789676Y-83980261D01*
X99789664Y-83980264D01*
X99661014Y-84033552D01*
X99591544Y-84041021D01*
X99529065Y-84009745D01*
X99499003Y-83966446D01*
X99459394Y-83870821D01*
X99459390Y-83870814D01*
X99371789Y-83739711D01*
X99371786Y-83739707D01*
X99260292Y-83628213D01*
X99260288Y-83628210D01*
X99129185Y-83540609D01*
X99129172Y-83540602D01*
X98983501Y-83480264D01*
X98983489Y-83480261D01*
X98828845Y-83449500D01*
X98828842Y-83449500D01*
X98671158Y-83449500D01*
X98671155Y-83449500D01*
X98516510Y-83480261D01*
X98516498Y-83480264D01*
X98370827Y-83540602D01*
X98370814Y-83540609D01*
X98239711Y-83628210D01*
X98239707Y-83628213D01*
X98128213Y-83739707D01*
X98128210Y-83739711D01*
X98040609Y-83870814D01*
X98040602Y-83870827D01*
X97980264Y-84016498D01*
X97980261Y-84016510D01*
X97949500Y-84171153D01*
X97949500Y-84328846D01*
X97980261Y-84483489D01*
X97980264Y-84483501D01*
X98042937Y-84634808D01*
X98040849Y-84635672D01*
X98052666Y-84682802D01*
X98052666Y-85083887D01*
X98033898Y-85147800D01*
X98034374Y-85148075D01*
X98033242Y-85150034D01*
X98032981Y-85150926D01*
X98031566Y-85152938D01*
X98030309Y-85155114D01*
X97972448Y-85294805D01*
X97972447Y-85294809D01*
X97957666Y-85407073D01*
X97957666Y-87264856D01*
X97972445Y-87377119D01*
X97972448Y-87377130D01*
X98030308Y-87516818D01*
X98030309Y-87516820D01*
X98030310Y-87516821D01*
X98122356Y-87636778D01*
X98242313Y-87728824D01*
X98242314Y-87728824D01*
X98242315Y-87728825D01*
X98272406Y-87741289D01*
X98382007Y-87786687D01*
X98494279Y-87801468D01*
X99012052Y-87801467D01*
X99012054Y-87801467D01*
X99124317Y-87786688D01*
X99124316Y-87786688D01*
X99124325Y-87786687D01*
X99264019Y-87728824D01*
X99312679Y-87691486D01*
X99377848Y-87666291D01*
X99446293Y-87680329D01*
X99463653Y-87691486D01*
X99512312Y-87728824D01*
X99542406Y-87741289D01*
X99652007Y-87786687D01*
X99764279Y-87801468D01*
X100282052Y-87801467D01*
X100282054Y-87801467D01*
X100394317Y-87786688D01*
X100394316Y-87786688D01*
X100394325Y-87786687D01*
X100485894Y-87748757D01*
X100555361Y-87741289D01*
X100617841Y-87772564D01*
X100647906Y-87815866D01*
X100672389Y-87874975D01*
X100710590Y-87932146D01*
X100749052Y-87989709D01*
X100828930Y-88069587D01*
X100855808Y-88109814D01*
X100915602Y-88254172D01*
X100915609Y-88254185D01*
X101003210Y-88385288D01*
X101003213Y-88385292D01*
X101114707Y-88496786D01*
X101114711Y-88496789D01*
X101245814Y-88584390D01*
X101245827Y-88584397D01*
X101391498Y-88644735D01*
X101391503Y-88644737D01*
X101546153Y-88675499D01*
X101546156Y-88675500D01*
X101546158Y-88675500D01*
X101703844Y-88675500D01*
X101703845Y-88675499D01*
X101858497Y-88644737D01*
X102004179Y-88584394D01*
X102135289Y-88496789D01*
X102246789Y-88385289D01*
X102334394Y-88254179D01*
X102394737Y-88108497D01*
X102399059Y-88086767D01*
X102431441Y-88024858D01*
X102492156Y-87990282D01*
X102561925Y-87994020D01*
X102608357Y-88023277D01*
X105893578Y-91308498D01*
X105927063Y-91369821D01*
X105923604Y-91435179D01*
X105909651Y-91477288D01*
X105909651Y-91477290D01*
X105899500Y-91576647D01*
X105899500Y-92123337D01*
X105899501Y-92123355D01*
X105909650Y-92222707D01*
X105909651Y-92222710D01*
X105962996Y-92383694D01*
X105963001Y-92383705D01*
X106052029Y-92528040D01*
X106052032Y-92528044D01*
X106171955Y-92647967D01*
X106171959Y-92647970D01*
X106316294Y-92736998D01*
X106316297Y-92736999D01*
X106316303Y-92737003D01*
X106477292Y-92790349D01*
X106576655Y-92800500D01*
X106655610Y-92800499D01*
X106703065Y-92809938D01*
X106708165Y-92812051D01*
X106708167Y-92812051D01*
X106708169Y-92812052D01*
X106901456Y-92850500D01*
X106901459Y-92850500D01*
X111098543Y-92850500D01*
X111291830Y-92812052D01*
X111291830Y-92812051D01*
X111291835Y-92812051D01*
X111296934Y-92809938D01*
X111344389Y-92800499D01*
X111423338Y-92800499D01*
X111423344Y-92800499D01*
X111423352Y-92800498D01*
X111423355Y-92800498D01*
X111477760Y-92794940D01*
X111522708Y-92790349D01*
X111683697Y-92737003D01*
X111828044Y-92647968D01*
X111947968Y-92528044D01*
X112037003Y-92383697D01*
X112090349Y-92222708D01*
X112100500Y-92123345D01*
X112100499Y-91791518D01*
X112120183Y-91724480D01*
X112136818Y-91703838D01*
X112544111Y-91296546D01*
X112544112Y-91296545D01*
X112544112Y-91296544D01*
X112544114Y-91296543D01*
X112620775Y-91181811D01*
X112673580Y-91054328D01*
X112700500Y-90918994D01*
X112700500Y-90781006D01*
X112700500Y-89684797D01*
X112720185Y-89617758D01*
X112759403Y-89579258D01*
X112818656Y-89542712D01*
X112942712Y-89418656D01*
X113034814Y-89269334D01*
X113089999Y-89102797D01*
X113100500Y-89000009D01*
X113100499Y-87999992D01*
X113099448Y-87989708D01*
X113089999Y-87897203D01*
X113089998Y-87897200D01*
X113071183Y-87840420D01*
X113034814Y-87730666D01*
X112942712Y-87581344D01*
X112818656Y-87457288D01*
X112725888Y-87400069D01*
X112669336Y-87365187D01*
X112669331Y-87365185D01*
X112667862Y-87364698D01*
X112502797Y-87310001D01*
X112502795Y-87310000D01*
X112400016Y-87299500D01*
X112400009Y-87299500D01*
X111907703Y-87299500D01*
X111840664Y-87279815D01*
X111794909Y-87227011D01*
X111784965Y-87157853D01*
X111786086Y-87151309D01*
X111800499Y-87078846D01*
X111800500Y-87078844D01*
X111800500Y-86921155D01*
X111800499Y-86921153D01*
X111769737Y-86766503D01*
X111709939Y-86622136D01*
X111700500Y-86574684D01*
X111700500Y-86124499D01*
X111720185Y-86057460D01*
X111772989Y-86011705D01*
X111824500Y-86000499D01*
X112047871Y-86000499D01*
X112047872Y-86000499D01*
X112107483Y-85994091D01*
X112242331Y-85943796D01*
X112357546Y-85857546D01*
X112443796Y-85742331D01*
X112494091Y-85607483D01*
X112500500Y-85547873D01*
X112500499Y-83452128D01*
X112494091Y-83392517D01*
X112443796Y-83257669D01*
X112443795Y-83257668D01*
X112443793Y-83257664D01*
X112357547Y-83142455D01*
X112357544Y-83142452D01*
X112242335Y-83056206D01*
X112242328Y-83056202D01*
X112107482Y-83005908D01*
X112107483Y-83005908D01*
X112047883Y-82999501D01*
X112047881Y-82999500D01*
X112047873Y-82999500D01*
X112047864Y-82999500D01*
X109952129Y-82999500D01*
X109952123Y-82999501D01*
X109892516Y-83005908D01*
X109757671Y-83056202D01*
X109757664Y-83056206D01*
X109642455Y-83142452D01*
X109642452Y-83142455D01*
X109556206Y-83257664D01*
X109556202Y-83257671D01*
X109505908Y-83392517D01*
X109499782Y-83449500D01*
X109499501Y-83452123D01*
X109499500Y-83452135D01*
X109499500Y-84968581D01*
X109479815Y-85035620D01*
X109427011Y-85081375D01*
X109357853Y-85091319D01*
X109347818Y-85089089D01*
X109347809Y-85089137D01*
X109148543Y-85049500D01*
X109148541Y-85049500D01*
X109012230Y-85049500D01*
X108945191Y-85029815D01*
X108924549Y-85013181D01*
X108893657Y-84982289D01*
X108893656Y-84982288D01*
X108744334Y-84890186D01*
X108577797Y-84835001D01*
X108577795Y-84835000D01*
X108475010Y-84824500D01*
X107699998Y-84824500D01*
X107699980Y-84824501D01*
X107597203Y-84835000D01*
X107597200Y-84835001D01*
X107430668Y-84890185D01*
X107430663Y-84890187D01*
X107281342Y-84982289D01*
X107157285Y-85106346D01*
X107155537Y-85109182D01*
X107153829Y-85110717D01*
X107152807Y-85112011D01*
X107152585Y-85111836D01*
X107103589Y-85155905D01*
X107034626Y-85167126D01*
X106970544Y-85139282D01*
X106944463Y-85109182D01*
X106942714Y-85106346D01*
X106818657Y-84982289D01*
X106818656Y-84982288D01*
X106669334Y-84890186D01*
X106502797Y-84835001D01*
X106502795Y-84835000D01*
X106400010Y-84824500D01*
X105624998Y-84824500D01*
X105624980Y-84824501D01*
X105522203Y-84835000D01*
X105522200Y-84835001D01*
X105355668Y-84890185D01*
X105355663Y-84890187D01*
X105283489Y-84934705D01*
X105208368Y-84981039D01*
X105143273Y-84999500D01*
X103687666Y-84999500D01*
X103620627Y-84979815D01*
X103574872Y-84927011D01*
X103563666Y-84875500D01*
X103563666Y-82552615D01*
X103583351Y-82485576D01*
X103599980Y-82464939D01*
X106649265Y-79415653D01*
X107971100Y-79415653D01*
X107971100Y-79612498D01*
X108001890Y-79806902D01*
X108062717Y-79994105D01*
X108152076Y-80169481D01*
X108267772Y-80328722D01*
X108406954Y-80467904D01*
X108566195Y-80583600D01*
X108649055Y-80625819D01*
X108741570Y-80672958D01*
X108741572Y-80672958D01*
X108741575Y-80672960D01*
X108928774Y-80733785D01*
X109017024Y-80747762D01*
X109080159Y-80777691D01*
X109117091Y-80837002D01*
X109121627Y-80870235D01*
X109121627Y-80954330D01*
X109152417Y-81148734D01*
X109213244Y-81335937D01*
X109270880Y-81449053D01*
X109302603Y-81511313D01*
X109418299Y-81670554D01*
X109557481Y-81809736D01*
X109716722Y-81925432D01*
X109799582Y-81967651D01*
X109892097Y-82014790D01*
X109892099Y-82014790D01*
X109892102Y-82014792D01*
X109992444Y-82047395D01*
X110079300Y-82075617D01*
X110273705Y-82106408D01*
X110273710Y-82106408D01*
X110470549Y-82106408D01*
X110664953Y-82075617D01*
X110852152Y-82014792D01*
X111027532Y-81925432D01*
X111186773Y-81809736D01*
X111325955Y-81670554D01*
X111441651Y-81511313D01*
X111531011Y-81335933D01*
X111591836Y-81148734D01*
X111622627Y-80954330D01*
X111622627Y-80757485D01*
X111591836Y-80563081D01*
X111531009Y-80375878D01*
X111441650Y-80200502D01*
X111419112Y-80169481D01*
X111325955Y-80041262D01*
X111186773Y-79902080D01*
X111027532Y-79786384D01*
X110852152Y-79697024D01*
X110664953Y-79636199D01*
X110664951Y-79636198D01*
X110664949Y-79636198D01*
X110576702Y-79622221D01*
X110513567Y-79592292D01*
X110476636Y-79532980D01*
X110472100Y-79499748D01*
X110472100Y-79415653D01*
X110441309Y-79221249D01*
X110380482Y-79034046D01*
X110291123Y-78858670D01*
X110175428Y-78699430D01*
X110036246Y-78560248D01*
X109877005Y-78444552D01*
X109701629Y-78355193D01*
X109514426Y-78294366D01*
X109320022Y-78263576D01*
X109320017Y-78263576D01*
X109123183Y-78263576D01*
X109123178Y-78263576D01*
X108928773Y-78294366D01*
X108741570Y-78355193D01*
X108566194Y-78444552D01*
X108475341Y-78510561D01*
X108406954Y-78560248D01*
X108406952Y-78560250D01*
X108406951Y-78560250D01*
X108267774Y-78699427D01*
X108267774Y-78699428D01*
X108267772Y-78699430D01*
X108218085Y-78767817D01*
X108152076Y-78858670D01*
X108062717Y-79034046D01*
X108001890Y-79221249D01*
X107971100Y-79415653D01*
X106649265Y-79415653D01*
X109228101Y-76836817D01*
X109289424Y-76803333D01*
X109315782Y-76800499D01*
X110275002Y-76800499D01*
X110275008Y-76800499D01*
X110377797Y-76789999D01*
X110544334Y-76734814D01*
X110693656Y-76642712D01*
X110737319Y-76599049D01*
X110798642Y-76565564D01*
X110868334Y-76570548D01*
X110912681Y-76599049D01*
X110956344Y-76642712D01*
X111105666Y-76734814D01*
X111272203Y-76789999D01*
X111374991Y-76800500D01*
X111375469Y-76800499D01*
X111375568Y-76800529D01*
X111378139Y-76800660D01*
X111378130Y-76800820D01*
X111378132Y-76800821D01*
X111378129Y-76800844D01*
X111378107Y-76801273D01*
X111442511Y-76820165D01*
X111488280Y-76872957D01*
X111499500Y-76924499D01*
X111499500Y-77598541D01*
X111499500Y-77598543D01*
X111499499Y-77598543D01*
X111537947Y-77791829D01*
X111537950Y-77791839D01*
X111613364Y-77973907D01*
X111613371Y-77973920D01*
X111722860Y-78137781D01*
X111722863Y-78137785D01*
X111862214Y-78277136D01*
X111862218Y-78277139D01*
X112026079Y-78386628D01*
X112026092Y-78386635D01*
X112165918Y-78444552D01*
X112208165Y-78462051D01*
X112208169Y-78462051D01*
X112208170Y-78462052D01*
X112401456Y-78500500D01*
X112401459Y-78500500D01*
X112598543Y-78500500D01*
X112728582Y-78474632D01*
X112791835Y-78462051D01*
X112973914Y-78386632D01*
X113137782Y-78277139D01*
X113277139Y-78137782D01*
X113386632Y-77973914D01*
X113462051Y-77791835D01*
X113500500Y-77598541D01*
X113500500Y-76924499D01*
X113520185Y-76857460D01*
X113572989Y-76811705D01*
X113621879Y-76801068D01*
X113621859Y-76800659D01*
X113624346Y-76800532D01*
X113624500Y-76800499D01*
X113625002Y-76800499D01*
X113625008Y-76800499D01*
X113727797Y-76789999D01*
X113894334Y-76734814D01*
X114043656Y-76642712D01*
X114167712Y-76518656D01*
X114259814Y-76369334D01*
X114314999Y-76202797D01*
X114325500Y-76100009D01*
X114325499Y-74899992D01*
X114321640Y-74862219D01*
X114314999Y-74797203D01*
X114314998Y-74797200D01*
X114311076Y-74785365D01*
X114259814Y-74630666D01*
X114167712Y-74481344D01*
X114043656Y-74357288D01*
X113894334Y-74265186D01*
X113727797Y-74210001D01*
X113727795Y-74210000D01*
X113625016Y-74199500D01*
X113625009Y-74199500D01*
X113090520Y-74199500D01*
X113023481Y-74179815D01*
X112977726Y-74127011D01*
X112967782Y-74057853D01*
X112996807Y-73994297D01*
X113002839Y-73987819D01*
X113794111Y-73196546D01*
X113794112Y-73196545D01*
X113794114Y-73196543D01*
X113870775Y-73081811D01*
X113923580Y-72954329D01*
X113923580Y-72954325D01*
X113923582Y-72954322D01*
X113928934Y-72927411D01*
X113928934Y-72927409D01*
X113950500Y-72818993D01*
X113950500Y-70181007D01*
X113950500Y-70181004D01*
X113923581Y-70045677D01*
X113923580Y-70045676D01*
X113923580Y-70045672D01*
X113903690Y-69997654D01*
X113870775Y-69918189D01*
X113794114Y-69803457D01*
X113794112Y-69803454D01*
X112909045Y-68918387D01*
X112794308Y-68841723D01*
X112680572Y-68794612D01*
X112626169Y-68750771D01*
X112622486Y-68745148D01*
X112596549Y-68703097D01*
X112567712Y-68656344D01*
X112443656Y-68532288D01*
X112294334Y-68440186D01*
X112127797Y-68385001D01*
X112127795Y-68385000D01*
X112025010Y-68374500D01*
X110974998Y-68374500D01*
X110974980Y-68374501D01*
X110872203Y-68385000D01*
X110872200Y-68385001D01*
X110705668Y-68440185D01*
X110705663Y-68440187D01*
X110556342Y-68532289D01*
X110432289Y-68656342D01*
X110403451Y-68703097D01*
X110351503Y-68749821D01*
X110297912Y-68762000D01*
X109202088Y-68762000D01*
X109135049Y-68742315D01*
X109096549Y-68703097D01*
X109067712Y-68656344D01*
X108943656Y-68532288D01*
X108794334Y-68440186D01*
X108627797Y-68385001D01*
X108627795Y-68385000D01*
X108525010Y-68374500D01*
X107474998Y-68374500D01*
X107474980Y-68374501D01*
X107372203Y-68385000D01*
X107372200Y-68385001D01*
X107205668Y-68440185D01*
X107205663Y-68440187D01*
X107056342Y-68532289D01*
X106932289Y-68656342D01*
X106840187Y-68805663D01*
X106840186Y-68805666D01*
X106785001Y-68972203D01*
X106785001Y-68972204D01*
X106785000Y-68972204D01*
X106774500Y-69074983D01*
X106774500Y-69143650D01*
X106754815Y-69210689D01*
X106702011Y-69256444D01*
X106632853Y-69266388D01*
X106603049Y-69258212D01*
X106595488Y-69255080D01*
X106595486Y-69255079D01*
X106595482Y-69255078D01*
X106460156Y-69228160D01*
X106460154Y-69228160D01*
X106460153Y-69228160D01*
X105637480Y-69228160D01*
X105570441Y-69208475D01*
X105534379Y-69173052D01*
X105527141Y-69162220D01*
X105527136Y-69162214D01*
X105387785Y-69022863D01*
X105387781Y-69022860D01*
X105223920Y-68913371D01*
X105223907Y-68913364D01*
X105041839Y-68837950D01*
X105041829Y-68837947D01*
X104848543Y-68799500D01*
X104848541Y-68799500D01*
X104651459Y-68799500D01*
X104651457Y-68799500D01*
X104458170Y-68837947D01*
X104458160Y-68837950D01*
X104276092Y-68913364D01*
X104276079Y-68913371D01*
X104112218Y-69022860D01*
X104112214Y-69022863D01*
X103972863Y-69162214D01*
X103972860Y-69162218D01*
X103863371Y-69326079D01*
X103863364Y-69326092D01*
X103787950Y-69508160D01*
X103787947Y-69508170D01*
X103749500Y-69701456D01*
X103749500Y-69701459D01*
X103749500Y-69898541D01*
X103749500Y-69898543D01*
X103749499Y-69898543D01*
X103787947Y-70091829D01*
X103787950Y-70091839D01*
X103863364Y-70273907D01*
X103863371Y-70273920D01*
X103972860Y-70437781D01*
X103972863Y-70437785D01*
X104112214Y-70577136D01*
X104112218Y-70577139D01*
X104216618Y-70646898D01*
X104261423Y-70700511D01*
X104270130Y-70769836D01*
X104239975Y-70832863D01*
X104216618Y-70853102D01*
X104112218Y-70922860D01*
X104112214Y-70922863D01*
X103972863Y-71062214D01*
X103972860Y-71062218D01*
X103863371Y-71226079D01*
X103863364Y-71226092D01*
X103787950Y-71408160D01*
X103787947Y-71408170D01*
X103749500Y-71601456D01*
X103749500Y-71798547D01*
X103751469Y-71808446D01*
X103745239Y-71878038D01*
X103717532Y-71920313D01*
X100864065Y-74773781D01*
X100856122Y-74778117D01*
X100850698Y-74785365D01*
X100825933Y-74794602D01*
X100802742Y-74807266D01*
X100793715Y-74806620D01*
X100785234Y-74809784D01*
X100759410Y-74804167D01*
X100733050Y-74802282D01*
X100723997Y-74796464D01*
X100716961Y-74794934D01*
X100688719Y-74773793D01*
X100688705Y-74773784D01*
X100688702Y-74773781D01*
X100660948Y-74746027D01*
X100660945Y-74746025D01*
X100656605Y-74741685D01*
X100637783Y-74722862D01*
X100637780Y-74722860D01*
X100473920Y-74613372D01*
X100473910Y-74613367D01*
X100291836Y-74537949D01*
X100291828Y-74537947D01*
X100098543Y-74499500D01*
X100098540Y-74499500D01*
X99901460Y-74499500D01*
X99901457Y-74499500D01*
X99708171Y-74537947D01*
X99708163Y-74537949D01*
X99526089Y-74613367D01*
X99526074Y-74613375D01*
X99443890Y-74668289D01*
X99377213Y-74689167D01*
X99309833Y-74670682D01*
X99306110Y-74668289D01*
X99223925Y-74613375D01*
X99223910Y-74613367D01*
X99041836Y-74537949D01*
X99041828Y-74537947D01*
X98848543Y-74499500D01*
X98848540Y-74499500D01*
X98651460Y-74499500D01*
X98651457Y-74499500D01*
X98458171Y-74537947D01*
X98458163Y-74537949D01*
X98276089Y-74613367D01*
X98276079Y-74613372D01*
X98112219Y-74722860D01*
X98112215Y-74722863D01*
X97972863Y-74862215D01*
X97972860Y-74862219D01*
X97863372Y-75026079D01*
X97863367Y-75026089D01*
X97787949Y-75208163D01*
X97787947Y-75208171D01*
X97749588Y-75401011D01*
X97749588Y-75401017D01*
X97749500Y-75401460D01*
X93500500Y-75401460D01*
X93500500Y-72254692D01*
X93520185Y-72187653D01*
X93571749Y-72142972D01*
X93571651Y-72142780D01*
X93572428Y-72142384D01*
X93572989Y-72141898D01*
X93575693Y-72140720D01*
X93575990Y-72140568D01*
X93575992Y-72140568D01*
X93786433Y-72033343D01*
X93977510Y-71894517D01*
X94085208Y-71786819D01*
X94146531Y-71753334D01*
X94172889Y-71750500D01*
X95169699Y-71750500D01*
X95236738Y-71770185D01*
X95282493Y-71822989D01*
X95287401Y-71835487D01*
X95315186Y-71919335D01*
X95407288Y-72068656D01*
X95531344Y-72192712D01*
X95680665Y-72284814D01*
X95847202Y-72339999D01*
X95949990Y-72350500D01*
X97775501Y-72350500D01*
X97842540Y-72370185D01*
X97888295Y-72422989D01*
X97899501Y-72474500D01*
X97899501Y-72897876D01*
X97905908Y-72957483D01*
X97956202Y-73092328D01*
X97956206Y-73092335D01*
X98042452Y-73207544D01*
X98042455Y-73207547D01*
X98157664Y-73293793D01*
X98157671Y-73293797D01*
X98292517Y-73344091D01*
X98292516Y-73344091D01*
X98299444Y-73344835D01*
X98352127Y-73350500D01*
X99647872Y-73350499D01*
X99707483Y-73344091D01*
X99842331Y-73293796D01*
X99957546Y-73207546D01*
X100043796Y-73092331D01*
X100094091Y-72957483D01*
X100100500Y-72897873D01*
X100100500Y-72474500D01*
X100120185Y-72407461D01*
X100172989Y-72361706D01*
X100224500Y-72350500D01*
X102050005Y-72350500D01*
X102050010Y-72350500D01*
X102152798Y-72339999D01*
X102319335Y-72284814D01*
X102468656Y-72192712D01*
X102592712Y-72068656D01*
X102684814Y-71919335D01*
X102739999Y-71752798D01*
X102750500Y-71650010D01*
X102750500Y-69849990D01*
X102739999Y-69747202D01*
X102684814Y-69580665D01*
X102592712Y-69431344D01*
X102468656Y-69307288D01*
X102319335Y-69215186D01*
X102152798Y-69160001D01*
X102152796Y-69160000D01*
X102050017Y-69149500D01*
X102050010Y-69149500D01*
X100224499Y-69149500D01*
X100157460Y-69129815D01*
X100111705Y-69077011D01*
X100100499Y-69025500D01*
X100100499Y-68602129D01*
X100100498Y-68602123D01*
X100100497Y-68602116D01*
X100094091Y-68542517D01*
X100090276Y-68532289D01*
X100043797Y-68407671D01*
X100043793Y-68407664D01*
X99957547Y-68292455D01*
X99957544Y-68292452D01*
X99842335Y-68206206D01*
X99842328Y-68206202D01*
X99707482Y-68155908D01*
X99707483Y-68155908D01*
X99647883Y-68149501D01*
X99647881Y-68149500D01*
X99647873Y-68149500D01*
X99647864Y-68149500D01*
X98352129Y-68149500D01*
X98352123Y-68149501D01*
X98292516Y-68155908D01*
X98157671Y-68206202D01*
X98157664Y-68206206D01*
X98042455Y-68292452D01*
X98042452Y-68292455D01*
X97956206Y-68407664D01*
X97956202Y-68407671D01*
X97905908Y-68542517D01*
X97899501Y-68602116D01*
X97899501Y-68602123D01*
X97899500Y-68602135D01*
X97899500Y-69025500D01*
X97879815Y-69092539D01*
X97827011Y-69138294D01*
X97775500Y-69149500D01*
X95949982Y-69149500D01*
X95847203Y-69160000D01*
X95847202Y-69160001D01*
X95840512Y-69162218D01*
X95680667Y-69215185D01*
X95680662Y-69215187D01*
X95531342Y-69307289D01*
X95407289Y-69431342D01*
X95315187Y-69580662D01*
X95315186Y-69580665D01*
X95287403Y-69664505D01*
X95247632Y-69721949D01*
X95183117Y-69748772D01*
X95169699Y-69749500D01*
X94172889Y-69749500D01*
X94105850Y-69729815D01*
X94085208Y-69713181D01*
X93977512Y-69605485D01*
X93977510Y-69605483D01*
X93786433Y-69466657D01*
X93575992Y-69359432D01*
X93571651Y-69357220D01*
X93572263Y-69356018D01*
X93522633Y-69316011D01*
X93500578Y-69249714D01*
X93500500Y-69245307D01*
X93500500Y-67374500D01*
X93520185Y-67307461D01*
X93572989Y-67261706D01*
X93624500Y-67250500D01*
X114875500Y-67250500D01*
X114942539Y-67270185D01*
G37*
%TD.AperFunction*%
%TD*%
M02*
