%TF.GenerationSoftware,KiCad,Pcbnew,9.0.8*%
%TF.CreationDate,2026-05-05T00:31:33+10:00*%
%TF.ProjectId,RiscPcRtcRepair,52697363-5063-4527-9463-526570616972,1*%
%TF.SameCoordinates,Original*%
%TF.FileFunction,Legend,Top*%
%TF.FilePolarity,Positive*%
%FSLAX46Y46*%
G04 Gerber Fmt 4.6, Leading zero omitted, Abs format (unit mm)*
G04 Created by KiCad (PCBNEW 9.0.8) date 2026-05-05 00:31:33*
%MOMM*%
%LPD*%
G01*
G04 APERTURE LIST*
%ADD10C,0.150000*%
%ADD11C,0.200000*%
%ADD12C,0.120000*%
%ADD13C,0.127000*%
G04 APERTURE END LIST*
D10*
X95573866Y-93785713D02*
X95573866Y-93023809D01*
X95954819Y-93404761D02*
X95192914Y-93404761D01*
X94954819Y-92071428D02*
X94954819Y-92547618D01*
X94954819Y-92547618D02*
X95431009Y-92595237D01*
X95431009Y-92595237D02*
X95383390Y-92547618D01*
X95383390Y-92547618D02*
X95335771Y-92452380D01*
X95335771Y-92452380D02*
X95335771Y-92214285D01*
X95335771Y-92214285D02*
X95383390Y-92119047D01*
X95383390Y-92119047D02*
X95431009Y-92071428D01*
X95431009Y-92071428D02*
X95526247Y-92023809D01*
X95526247Y-92023809D02*
X95764342Y-92023809D01*
X95764342Y-92023809D02*
X95859580Y-92071428D01*
X95859580Y-92071428D02*
X95907200Y-92119047D01*
X95907200Y-92119047D02*
X95954819Y-92214285D01*
X95954819Y-92214285D02*
X95954819Y-92452380D01*
X95954819Y-92452380D02*
X95907200Y-92547618D01*
X95907200Y-92547618D02*
X95859580Y-92595237D01*
X94954819Y-91738094D02*
X95954819Y-91404761D01*
X95954819Y-91404761D02*
X94954819Y-91071428D01*
D11*
X113867219Y-85106517D02*
X113867219Y-85677945D01*
X113867219Y-85392231D02*
X112867219Y-85392231D01*
X112867219Y-85392231D02*
X113010076Y-85487469D01*
X113010076Y-85487469D02*
X113105314Y-85582707D01*
X113105314Y-85582707D02*
X113152933Y-85677945D01*
X113867219Y-84677945D02*
X112867219Y-84677945D01*
X113343409Y-84677945D02*
X113343409Y-84106517D01*
X113867219Y-84106517D02*
X112867219Y-84106517D01*
X113200552Y-83725564D02*
X113200552Y-83201755D01*
X113200552Y-83201755D02*
X113867219Y-83725564D01*
X113867219Y-83725564D02*
X113867219Y-83201755D01*
D10*
X102523809Y-68188628D02*
X102523809Y-68664819D01*
X102190476Y-67664819D02*
X102523809Y-68188628D01*
X102523809Y-68188628D02*
X102857142Y-67664819D01*
X103714285Y-68664819D02*
X103142857Y-68664819D01*
X103428571Y-68664819D02*
X103428571Y-67664819D01*
X103428571Y-67664819D02*
X103333333Y-67807676D01*
X103333333Y-67807676D02*
X103238095Y-67902914D01*
X103238095Y-67902914D02*
X103142857Y-67950533D01*
X109454819Y-94238094D02*
X108454819Y-94238094D01*
X108454819Y-94238094D02*
X108454819Y-93999999D01*
X108454819Y-93999999D02*
X108502438Y-93857142D01*
X108502438Y-93857142D02*
X108597676Y-93761904D01*
X108597676Y-93761904D02*
X108692914Y-93714285D01*
X108692914Y-93714285D02*
X108883390Y-93666666D01*
X108883390Y-93666666D02*
X109026247Y-93666666D01*
X109026247Y-93666666D02*
X109216723Y-93714285D01*
X109216723Y-93714285D02*
X109311961Y-93761904D01*
X109311961Y-93761904D02*
X109407200Y-93857142D01*
X109407200Y-93857142D02*
X109454819Y-93999999D01*
X109454819Y-93999999D02*
X109454819Y-94238094D01*
X108550057Y-93285713D02*
X108502438Y-93238094D01*
X108502438Y-93238094D02*
X108454819Y-93142856D01*
X108454819Y-93142856D02*
X108454819Y-92904761D01*
X108454819Y-92904761D02*
X108502438Y-92809523D01*
X108502438Y-92809523D02*
X108550057Y-92761904D01*
X108550057Y-92761904D02*
X108645295Y-92714285D01*
X108645295Y-92714285D02*
X108740533Y-92714285D01*
X108740533Y-92714285D02*
X108883390Y-92761904D01*
X108883390Y-92761904D02*
X109454819Y-93333332D01*
X109454819Y-93333332D02*
X109454819Y-92714285D01*
X113954819Y-88666666D02*
X113478628Y-88999999D01*
X113954819Y-89238094D02*
X112954819Y-89238094D01*
X112954819Y-89238094D02*
X112954819Y-88857142D01*
X112954819Y-88857142D02*
X113002438Y-88761904D01*
X113002438Y-88761904D02*
X113050057Y-88714285D01*
X113050057Y-88714285D02*
X113145295Y-88666666D01*
X113145295Y-88666666D02*
X113288152Y-88666666D01*
X113288152Y-88666666D02*
X113383390Y-88714285D01*
X113383390Y-88714285D02*
X113431009Y-88761904D01*
X113431009Y-88761904D02*
X113478628Y-88857142D01*
X113478628Y-88857142D02*
X113478628Y-89238094D01*
X113954819Y-87714285D02*
X113954819Y-88285713D01*
X113954819Y-87999999D02*
X112954819Y-87999999D01*
X112954819Y-87999999D02*
X113097676Y-88095237D01*
X113097676Y-88095237D02*
X113192914Y-88190475D01*
X113192914Y-88190475D02*
X113240533Y-88285713D01*
X110039580Y-70666666D02*
X110087200Y-70714285D01*
X110087200Y-70714285D02*
X110134819Y-70857142D01*
X110134819Y-70857142D02*
X110134819Y-70952380D01*
X110134819Y-70952380D02*
X110087200Y-71095237D01*
X110087200Y-71095237D02*
X109991961Y-71190475D01*
X109991961Y-71190475D02*
X109896723Y-71238094D01*
X109896723Y-71238094D02*
X109706247Y-71285713D01*
X109706247Y-71285713D02*
X109563390Y-71285713D01*
X109563390Y-71285713D02*
X109372914Y-71238094D01*
X109372914Y-71238094D02*
X109277676Y-71190475D01*
X109277676Y-71190475D02*
X109182438Y-71095237D01*
X109182438Y-71095237D02*
X109134819Y-70952380D01*
X109134819Y-70952380D02*
X109134819Y-70857142D01*
X109134819Y-70857142D02*
X109182438Y-70714285D01*
X109182438Y-70714285D02*
X109230057Y-70666666D01*
X110134819Y-69714285D02*
X110134819Y-70285713D01*
X110134819Y-69999999D02*
X109134819Y-69999999D01*
X109134819Y-69999999D02*
X109277676Y-70095237D01*
X109277676Y-70095237D02*
X109372914Y-70190475D01*
X109372914Y-70190475D02*
X109420533Y-70285713D01*
X103316944Y-93809523D02*
X103364563Y-93666666D01*
X103364563Y-93666666D02*
X103412182Y-93619047D01*
X103412182Y-93619047D02*
X103507420Y-93571428D01*
X103507420Y-93571428D02*
X103650277Y-93571428D01*
X103650277Y-93571428D02*
X103745515Y-93619047D01*
X103745515Y-93619047D02*
X103793135Y-93666666D01*
X103793135Y-93666666D02*
X103840754Y-93761904D01*
X103840754Y-93761904D02*
X103840754Y-94142856D01*
X103840754Y-94142856D02*
X102840754Y-94142856D01*
X102840754Y-94142856D02*
X102840754Y-93809523D01*
X102840754Y-93809523D02*
X102888373Y-93714285D01*
X102888373Y-93714285D02*
X102935992Y-93666666D01*
X102935992Y-93666666D02*
X103031230Y-93619047D01*
X103031230Y-93619047D02*
X103126468Y-93619047D01*
X103126468Y-93619047D02*
X103221706Y-93666666D01*
X103221706Y-93666666D02*
X103269325Y-93714285D01*
X103269325Y-93714285D02*
X103316944Y-93809523D01*
X103316944Y-93809523D02*
X103316944Y-94142856D01*
X102840754Y-93285713D02*
X102840754Y-92714285D01*
X103840754Y-92999999D02*
X102840754Y-92999999D01*
X113539580Y-70666666D02*
X113587200Y-70714285D01*
X113587200Y-70714285D02*
X113634819Y-70857142D01*
X113634819Y-70857142D02*
X113634819Y-70952380D01*
X113634819Y-70952380D02*
X113587200Y-71095237D01*
X113587200Y-71095237D02*
X113491961Y-71190475D01*
X113491961Y-71190475D02*
X113396723Y-71238094D01*
X113396723Y-71238094D02*
X113206247Y-71285713D01*
X113206247Y-71285713D02*
X113063390Y-71285713D01*
X113063390Y-71285713D02*
X112872914Y-71238094D01*
X112872914Y-71238094D02*
X112777676Y-71190475D01*
X112777676Y-71190475D02*
X112682438Y-71095237D01*
X112682438Y-71095237D02*
X112634819Y-70952380D01*
X112634819Y-70952380D02*
X112634819Y-70857142D01*
X112634819Y-70857142D02*
X112682438Y-70714285D01*
X112682438Y-70714285D02*
X112730057Y-70666666D01*
X112730057Y-70285713D02*
X112682438Y-70238094D01*
X112682438Y-70238094D02*
X112634819Y-70142856D01*
X112634819Y-70142856D02*
X112634819Y-69904761D01*
X112634819Y-69904761D02*
X112682438Y-69809523D01*
X112682438Y-69809523D02*
X112730057Y-69761904D01*
X112730057Y-69761904D02*
X112825295Y-69714285D01*
X112825295Y-69714285D02*
X112920533Y-69714285D01*
X112920533Y-69714285D02*
X113063390Y-69761904D01*
X113063390Y-69761904D02*
X113634819Y-70333332D01*
X113634819Y-70333332D02*
X113634819Y-69714285D01*
X113454819Y-94238094D02*
X112454819Y-94238094D01*
X112454819Y-94238094D02*
X112454819Y-93999999D01*
X112454819Y-93999999D02*
X112502438Y-93857142D01*
X112502438Y-93857142D02*
X112597676Y-93761904D01*
X112597676Y-93761904D02*
X112692914Y-93714285D01*
X112692914Y-93714285D02*
X112883390Y-93666666D01*
X112883390Y-93666666D02*
X113026247Y-93666666D01*
X113026247Y-93666666D02*
X113216723Y-93714285D01*
X113216723Y-93714285D02*
X113311961Y-93761904D01*
X113311961Y-93761904D02*
X113407200Y-93857142D01*
X113407200Y-93857142D02*
X113454819Y-93999999D01*
X113454819Y-93999999D02*
X113454819Y-94238094D01*
X113454819Y-92714285D02*
X113454819Y-93285713D01*
X113454819Y-92999999D02*
X112454819Y-92999999D01*
X112454819Y-92999999D02*
X112597676Y-93095237D01*
X112597676Y-93095237D02*
X112692914Y-93190475D01*
X112692914Y-93190475D02*
X112740533Y-93285713D01*
X105115008Y-83318004D02*
X105115008Y-84258308D01*
X105115008Y-84258308D02*
X105170320Y-84368932D01*
X105170320Y-84368932D02*
X105225632Y-84424244D01*
X105225632Y-84424244D02*
X105336256Y-84479555D01*
X105336256Y-84479555D02*
X105557504Y-84479555D01*
X105557504Y-84479555D02*
X105668128Y-84424244D01*
X105668128Y-84424244D02*
X105723440Y-84368932D01*
X105723440Y-84368932D02*
X105778752Y-84258308D01*
X105778752Y-84258308D02*
X105778752Y-83318004D01*
X106940303Y-84479555D02*
X106276559Y-84479555D01*
X106608431Y-84479555D02*
X106608431Y-83318004D01*
X106608431Y-83318004D02*
X106497807Y-83483940D01*
X106497807Y-83483940D02*
X106387183Y-83594564D01*
X106387183Y-83594564D02*
X106276559Y-83649876D01*
X105785714Y-80407200D02*
X105928571Y-80454819D01*
X105928571Y-80454819D02*
X106166666Y-80454819D01*
X106166666Y-80454819D02*
X106261904Y-80407200D01*
X106261904Y-80407200D02*
X106309523Y-80359580D01*
X106309523Y-80359580D02*
X106357142Y-80264342D01*
X106357142Y-80264342D02*
X106357142Y-80169104D01*
X106357142Y-80169104D02*
X106309523Y-80073866D01*
X106309523Y-80073866D02*
X106261904Y-80026247D01*
X106261904Y-80026247D02*
X106166666Y-79978628D01*
X106166666Y-79978628D02*
X105976190Y-79931009D01*
X105976190Y-79931009D02*
X105880952Y-79883390D01*
X105880952Y-79883390D02*
X105833333Y-79835771D01*
X105833333Y-79835771D02*
X105785714Y-79740533D01*
X105785714Y-79740533D02*
X105785714Y-79645295D01*
X105785714Y-79645295D02*
X105833333Y-79550057D01*
X105833333Y-79550057D02*
X105880952Y-79502438D01*
X105880952Y-79502438D02*
X105976190Y-79454819D01*
X105976190Y-79454819D02*
X106214285Y-79454819D01*
X106214285Y-79454819D02*
X106357142Y-79502438D01*
X106785714Y-80454819D02*
X106785714Y-79454819D01*
X106785714Y-79454819D02*
X107023809Y-79454819D01*
X107023809Y-79454819D02*
X107166666Y-79502438D01*
X107166666Y-79502438D02*
X107261904Y-79597676D01*
X107261904Y-79597676D02*
X107309523Y-79692914D01*
X107309523Y-79692914D02*
X107357142Y-79883390D01*
X107357142Y-79883390D02*
X107357142Y-80026247D01*
X107357142Y-80026247D02*
X107309523Y-80216723D01*
X107309523Y-80216723D02*
X107261904Y-80311961D01*
X107261904Y-80311961D02*
X107166666Y-80407200D01*
X107166666Y-80407200D02*
X107023809Y-80454819D01*
X107023809Y-80454819D02*
X106785714Y-80454819D01*
X107738095Y-80169104D02*
X108214285Y-80169104D01*
X107642857Y-80454819D02*
X107976190Y-79454819D01*
X107976190Y-79454819D02*
X108309523Y-80454819D01*
X105809524Y-81907200D02*
X105952381Y-81954819D01*
X105952381Y-81954819D02*
X106190476Y-81954819D01*
X106190476Y-81954819D02*
X106285714Y-81907200D01*
X106285714Y-81907200D02*
X106333333Y-81859580D01*
X106333333Y-81859580D02*
X106380952Y-81764342D01*
X106380952Y-81764342D02*
X106380952Y-81669104D01*
X106380952Y-81669104D02*
X106333333Y-81573866D01*
X106333333Y-81573866D02*
X106285714Y-81526247D01*
X106285714Y-81526247D02*
X106190476Y-81478628D01*
X106190476Y-81478628D02*
X106000000Y-81431009D01*
X106000000Y-81431009D02*
X105904762Y-81383390D01*
X105904762Y-81383390D02*
X105857143Y-81335771D01*
X105857143Y-81335771D02*
X105809524Y-81240533D01*
X105809524Y-81240533D02*
X105809524Y-81145295D01*
X105809524Y-81145295D02*
X105857143Y-81050057D01*
X105857143Y-81050057D02*
X105904762Y-81002438D01*
X105904762Y-81002438D02*
X106000000Y-80954819D01*
X106000000Y-80954819D02*
X106238095Y-80954819D01*
X106238095Y-80954819D02*
X106380952Y-81002438D01*
X107380952Y-81859580D02*
X107333333Y-81907200D01*
X107333333Y-81907200D02*
X107190476Y-81954819D01*
X107190476Y-81954819D02*
X107095238Y-81954819D01*
X107095238Y-81954819D02*
X106952381Y-81907200D01*
X106952381Y-81907200D02*
X106857143Y-81811961D01*
X106857143Y-81811961D02*
X106809524Y-81716723D01*
X106809524Y-81716723D02*
X106761905Y-81526247D01*
X106761905Y-81526247D02*
X106761905Y-81383390D01*
X106761905Y-81383390D02*
X106809524Y-81192914D01*
X106809524Y-81192914D02*
X106857143Y-81097676D01*
X106857143Y-81097676D02*
X106952381Y-81002438D01*
X106952381Y-81002438D02*
X107095238Y-80954819D01*
X107095238Y-80954819D02*
X107190476Y-80954819D01*
X107190476Y-80954819D02*
X107333333Y-81002438D01*
X107333333Y-81002438D02*
X107380952Y-81050057D01*
X108285714Y-81954819D02*
X107809524Y-81954819D01*
X107809524Y-81954819D02*
X107809524Y-80954819D01*
X94384153Y-71511904D02*
X94336534Y-71607142D01*
X94336534Y-71607142D02*
X94336534Y-71749999D01*
X94336534Y-71749999D02*
X94384153Y-71892856D01*
X94384153Y-71892856D02*
X94479391Y-71988094D01*
X94479391Y-71988094D02*
X94574629Y-72035713D01*
X94574629Y-72035713D02*
X94765105Y-72083332D01*
X94765105Y-72083332D02*
X94907962Y-72083332D01*
X94907962Y-72083332D02*
X95098438Y-72035713D01*
X95098438Y-72035713D02*
X95193676Y-71988094D01*
X95193676Y-71988094D02*
X95288915Y-71892856D01*
X95288915Y-71892856D02*
X95336534Y-71749999D01*
X95336534Y-71749999D02*
X95336534Y-71654761D01*
X95336534Y-71654761D02*
X95288915Y-71511904D01*
X95288915Y-71511904D02*
X95241295Y-71464285D01*
X95241295Y-71464285D02*
X94907962Y-71464285D01*
X94907962Y-71464285D02*
X94907962Y-71654761D01*
X95336534Y-71035713D02*
X94336534Y-71035713D01*
X94336534Y-71035713D02*
X95336534Y-70464285D01*
X95336534Y-70464285D02*
X94336534Y-70464285D01*
X95336534Y-69988094D02*
X94336534Y-69988094D01*
X94336534Y-69988094D02*
X94336534Y-69749999D01*
X94336534Y-69749999D02*
X94384153Y-69607142D01*
X94384153Y-69607142D02*
X94479391Y-69511904D01*
X94479391Y-69511904D02*
X94574629Y-69464285D01*
X94574629Y-69464285D02*
X94765105Y-69416666D01*
X94765105Y-69416666D02*
X94907962Y-69416666D01*
X94907962Y-69416666D02*
X95098438Y-69464285D01*
X95098438Y-69464285D02*
X95193676Y-69511904D01*
X95193676Y-69511904D02*
X95288915Y-69607142D01*
X95288915Y-69607142D02*
X95336534Y-69749999D01*
X95336534Y-69749999D02*
X95336534Y-69988094D01*
X95323866Y-82535713D02*
X95323866Y-81773809D01*
X95704819Y-82154761D02*
X94942914Y-82154761D01*
X94704819Y-80821428D02*
X94704819Y-81297618D01*
X94704819Y-81297618D02*
X95181009Y-81345237D01*
X95181009Y-81345237D02*
X95133390Y-81297618D01*
X95133390Y-81297618D02*
X95085771Y-81202380D01*
X95085771Y-81202380D02*
X95085771Y-80964285D01*
X95085771Y-80964285D02*
X95133390Y-80869047D01*
X95133390Y-80869047D02*
X95181009Y-80821428D01*
X95181009Y-80821428D02*
X95276247Y-80773809D01*
X95276247Y-80773809D02*
X95514342Y-80773809D01*
X95514342Y-80773809D02*
X95609580Y-80821428D01*
X95609580Y-80821428D02*
X95657200Y-80869047D01*
X95657200Y-80869047D02*
X95704819Y-80964285D01*
X95704819Y-80964285D02*
X95704819Y-81202380D01*
X95704819Y-81202380D02*
X95657200Y-81297618D01*
X95657200Y-81297618D02*
X95609580Y-81345237D01*
X94704819Y-80488094D02*
X95704819Y-80154761D01*
X95704819Y-80154761D02*
X94704819Y-79821428D01*
X106883333Y-88409580D02*
X106835714Y-88457200D01*
X106835714Y-88457200D02*
X106692857Y-88504819D01*
X106692857Y-88504819D02*
X106597619Y-88504819D01*
X106597619Y-88504819D02*
X106454762Y-88457200D01*
X106454762Y-88457200D02*
X106359524Y-88361961D01*
X106359524Y-88361961D02*
X106311905Y-88266723D01*
X106311905Y-88266723D02*
X106264286Y-88076247D01*
X106264286Y-88076247D02*
X106264286Y-87933390D01*
X106264286Y-87933390D02*
X106311905Y-87742914D01*
X106311905Y-87742914D02*
X106359524Y-87647676D01*
X106359524Y-87647676D02*
X106454762Y-87552438D01*
X106454762Y-87552438D02*
X106597619Y-87504819D01*
X106597619Y-87504819D02*
X106692857Y-87504819D01*
X106692857Y-87504819D02*
X106835714Y-87552438D01*
X106835714Y-87552438D02*
X106883333Y-87600057D01*
X107216667Y-87504819D02*
X107835714Y-87504819D01*
X107835714Y-87504819D02*
X107502381Y-87885771D01*
X107502381Y-87885771D02*
X107645238Y-87885771D01*
X107645238Y-87885771D02*
X107740476Y-87933390D01*
X107740476Y-87933390D02*
X107788095Y-87981009D01*
X107788095Y-87981009D02*
X107835714Y-88076247D01*
X107835714Y-88076247D02*
X107835714Y-88314342D01*
X107835714Y-88314342D02*
X107788095Y-88409580D01*
X107788095Y-88409580D02*
X107740476Y-88457200D01*
X107740476Y-88457200D02*
X107645238Y-88504819D01*
X107645238Y-88504819D02*
X107359524Y-88504819D01*
X107359524Y-88504819D02*
X107264286Y-88457200D01*
X107264286Y-88457200D02*
X107216667Y-88409580D01*
X107359580Y-75666666D02*
X107407200Y-75714285D01*
X107407200Y-75714285D02*
X107454819Y-75857142D01*
X107454819Y-75857142D02*
X107454819Y-75952380D01*
X107454819Y-75952380D02*
X107407200Y-76095237D01*
X107407200Y-76095237D02*
X107311961Y-76190475D01*
X107311961Y-76190475D02*
X107216723Y-76238094D01*
X107216723Y-76238094D02*
X107026247Y-76285713D01*
X107026247Y-76285713D02*
X106883390Y-76285713D01*
X106883390Y-76285713D02*
X106692914Y-76238094D01*
X106692914Y-76238094D02*
X106597676Y-76190475D01*
X106597676Y-76190475D02*
X106502438Y-76095237D01*
X106502438Y-76095237D02*
X106454819Y-75952380D01*
X106454819Y-75952380D02*
X106454819Y-75857142D01*
X106454819Y-75857142D02*
X106502438Y-75714285D01*
X106502438Y-75714285D02*
X106550057Y-75666666D01*
X106788152Y-74809523D02*
X107454819Y-74809523D01*
X106407200Y-75047618D02*
X107121485Y-75285713D01*
X107121485Y-75285713D02*
X107121485Y-74666666D01*
D12*
%TO.C,Y1*%
X103010000Y-69390000D02*
X103010000Y-72110000D01*
X99860000Y-69390000D02*
X103010000Y-69390000D01*
X103880000Y-69800000D02*
X104190000Y-69800000D01*
X103010000Y-70400000D02*
X103880000Y-69800000D01*
X103010000Y-71100000D02*
X103880000Y-71700000D01*
X103880000Y-71700000D02*
X104190000Y-71700000D01*
X103010000Y-72110000D02*
X99860000Y-72110000D01*
%TO.C,D2*%
X106000000Y-91140000D02*
X106000000Y-95150000D01*
X108000000Y-91140000D02*
X106000000Y-91140000D01*
X108000000Y-91140000D02*
X108000000Y-95150000D01*
%TO.C,R1*%
X111227064Y-87765000D02*
X110772936Y-87765000D01*
X111227064Y-89235000D02*
X110772936Y-89235000D01*
%TO.C,C1*%
X107265000Y-70238748D02*
X107265000Y-70761252D01*
X108735000Y-70238748D02*
X108735000Y-70761252D01*
%TO.C,INT1*%
X109800000Y-83300000D02*
X112200000Y-83300000D01*
X109800000Y-85700000D02*
X109800000Y-83300000D01*
X112200000Y-83300000D02*
X112200000Y-85700000D01*
X112200000Y-85700000D02*
X109800000Y-85700000D01*
%TO.C,BT*%
X96957158Y-95610000D02*
X96957158Y-96860000D01*
X96957158Y-96860000D02*
X98207158Y-96860000D01*
X97057158Y-94800000D02*
X97057158Y-95100000D01*
X97057158Y-95100000D02*
X97257158Y-95100000D01*
X97157158Y-94800000D02*
X97157158Y-95100000D01*
X97257158Y-94000000D02*
X97867158Y-94000000D01*
X97257158Y-94800000D02*
X97057158Y-94800000D01*
X97867158Y-91050000D02*
X97867158Y-93000000D01*
X97867158Y-93000000D02*
X97257158Y-93000000D01*
X97867158Y-94000000D02*
X97867158Y-95950000D01*
X97867158Y-95950000D02*
X101367158Y-95950000D01*
X98567158Y-90440000D02*
X98567158Y-91050000D01*
X98567158Y-96560000D02*
X98567158Y-95950000D01*
X99867158Y-90440000D02*
X99867158Y-91050000D01*
X99867158Y-96560000D02*
X99867158Y-95950000D01*
X100867158Y-93400000D02*
X101367158Y-93400000D01*
X100867158Y-93600000D02*
X100867158Y-93400000D01*
X101367158Y-91050000D02*
X97867158Y-91050000D01*
X101367158Y-93500000D02*
X100867158Y-93500000D01*
X101367158Y-93600000D02*
X100867158Y-93600000D01*
X101367158Y-95950000D02*
X101367158Y-91050000D01*
X97257158Y-96560000D02*
X101977158Y-96560000D01*
X101977158Y-90440000D01*
X97257158Y-90440000D01*
X97257158Y-96560000D01*
%TO.C,C2*%
X110765000Y-70238748D02*
X110765000Y-70761252D01*
X112235000Y-70238748D02*
X112235000Y-70761252D01*
%TO.C,D1*%
X110000000Y-91140000D02*
X110000000Y-95150000D01*
X112000000Y-91140000D02*
X110000000Y-91140000D01*
X112000000Y-91140000D02*
X112000000Y-95150000D01*
D13*
%TO.C,U1*%
X96883166Y-77870968D02*
X96883166Y-85370968D01*
X104433166Y-77870968D02*
X104433166Y-85370968D01*
D11*
X103253166Y-74975968D02*
G75*
G02*
X103053166Y-74975968I-100000J0D01*
G01*
X103053166Y-74975968D02*
G75*
G02*
X103253166Y-74975968I100000J0D01*
G01*
D12*
%TO.C,C3*%
X107311252Y-86785000D02*
X106788748Y-86785000D01*
X107311252Y-85315000D02*
X106788748Y-85315000D01*
%TO.C,C4*%
X108565000Y-74304437D02*
X108565000Y-74440000D01*
X108565000Y-74304437D02*
X109629437Y-73240000D01*
X108565000Y-76695563D02*
X108565000Y-76560000D01*
X108565000Y-76695563D02*
X109629437Y-77760000D01*
X109629437Y-73240000D02*
X113085000Y-73240000D01*
X109629437Y-77760000D02*
X113085000Y-77760000D01*
X113085000Y-73240000D02*
X113085000Y-74440000D01*
X113085000Y-77760000D02*
X113085000Y-76560000D01*
%TD*%
M02*
